<svg width="454" height="164" viewBox="0 0 454 164" fill="none" xmlns="http://www.w3.org/2000/svg">
<rect width="454" height="164" fill="white"/>
<rect width="454" height="164" fill="url(#paint0_diamond_1_2)" fill-opacity="0.2"/>
<path d="M21.2642 24.4545H25.0568L29.0625 34.2273H29.233L33.2386 24.4545H37.0312V39H34.0483V29.5327H33.9276L30.1634 38.929H28.1321L24.3679 29.4972H24.2472V39H21.2642V24.4545ZM41.3761 43.0909C40.9925 43.0909 40.6327 43.0601 40.2965 42.9986C39.9651 42.9418 39.6905 42.8684 39.4727 42.7784L40.1545 40.5199C40.5096 40.6288 40.8292 40.688 41.1133 40.6974C41.4021 40.7069 41.6507 40.6406 41.859 40.4986C42.0721 40.3565 42.2449 40.1151 42.3775 39.7741L42.555 39.3125L38.6417 28.0909H41.8235L44.082 36.1023H44.1957L46.4755 28.0909H49.6786L45.4386 40.179C45.235 40.7661 44.958 41.2775 44.6076 41.7131C44.262 42.1534 43.824 42.492 43.2937 42.7287C42.7634 42.9702 42.1242 43.0909 41.3761 43.0909ZM65.5575 29.1562C65.4581 28.8106 65.3184 28.5052 65.1385 28.2401C64.9586 27.9702 64.7384 27.7429 64.478 27.5582C64.2223 27.3688 63.9287 27.2244 63.5973 27.125C63.2706 27.0256 62.9084 26.9759 62.5107 26.9759C61.7673 26.9759 61.1139 27.1605 60.5504 27.5298C59.9917 27.8991 59.5561 28.4366 59.2436 29.142C58.9311 29.8428 58.7749 30.6998 58.7749 31.7131C58.7749 32.7263 58.9287 33.5881 59.2365 34.2983C59.5443 35.0085 59.9799 35.5507 60.5433 35.9247C61.1068 36.294 61.772 36.4787 62.5391 36.4787C63.2351 36.4787 63.8293 36.3556 64.3217 36.1094C64.8189 35.8584 65.1977 35.5057 65.4581 35.0511C65.7232 34.5966 65.8558 34.0592 65.8558 33.4389L66.4808 33.5312H62.7308V31.2159H68.8175V33.0483C68.8175 34.3267 68.5476 35.4252 68.0078 36.3438C67.468 37.2576 66.7247 37.9631 65.7777 38.4602C64.8307 38.9527 63.7464 39.1989 62.5249 39.1989C61.1612 39.1989 59.9633 38.8982 58.9311 38.2969C57.8989 37.6908 57.094 36.8314 56.5163 35.7188C55.9434 34.6013 55.657 33.2756 55.657 31.7415C55.657 30.5625 55.8274 29.5114 56.1683 28.5881C56.514 27.66 56.9969 26.8741 57.6172 26.2301C58.2375 25.5862 58.9595 25.0961 59.7834 24.7599C60.6072 24.4238 61.4998 24.2557 62.4609 24.2557C63.2848 24.2557 64.0518 24.3764 64.7621 24.6179C65.4723 24.8546 66.102 25.1908 66.6513 25.6264C67.2053 26.062 67.6574 26.5805 68.0078 27.1818C68.3582 27.7784 68.5831 28.4366 68.6825 29.1562H65.5575ZM71.7543 39V28.0909H74.7798V39H71.7543ZM73.2741 26.6847C72.8243 26.6847 72.4384 26.5355 72.1165 26.2372C71.7992 25.9342 71.6406 25.572 71.6406 25.1506C71.6406 24.7339 71.7992 24.3764 72.1165 24.0781C72.4384 23.7751 72.8243 23.6236 73.2741 23.6236C73.724 23.6236 74.1075 23.7751 74.4247 24.0781C74.7467 24.3764 74.9077 24.7339 74.9077 25.1506C74.9077 25.572 74.7467 25.9342 74.4247 26.2372C74.1075 26.5355 73.724 26.6847 73.2741 26.6847ZM83.006 28.0909V30.3636H76.4364V28.0909H83.006ZM77.9279 25.4773H80.9535V35.6477C80.9535 35.9271 80.9961 36.1449 81.0813 36.3011C81.1665 36.4527 81.2849 36.5592 81.4364 36.6207C81.5927 36.6823 81.7726 36.7131 81.9762 36.7131C82.1183 36.7131 82.2603 36.7012 82.4023 36.6776C82.5444 36.6491 82.6533 36.6278 82.729 36.6136L83.2049 38.8651C83.0534 38.9124 82.8403 38.9669 82.5657 39.0284C82.2911 39.0947 81.9573 39.1349 81.5643 39.1491C80.8351 39.1776 80.1959 39.0805 79.6467 38.858C79.1022 38.6354 78.6784 38.2898 78.3754 37.821C78.0723 37.3523 77.9232 36.7604 77.9279 36.0455V25.4773ZM88.2369 32.6932V39H85.2113V24.4545H88.1516V30.0156H88.2795C88.5257 29.3717 88.9234 28.8674 89.4727 28.5028C90.0219 28.1335 90.7108 27.9489 91.5394 27.9489C92.297 27.9489 92.9575 28.1146 93.521 28.446C94.0891 28.7727 94.5295 29.2438 94.842 29.8594C95.1592 30.4702 95.3155 31.2017 95.3107 32.054V39H92.2852V32.5938C92.2899 31.9214 92.1194 31.3982 91.7738 31.0241C91.4329 30.6501 90.9547 30.4631 90.3391 30.4631C89.9272 30.4631 89.5626 30.5507 89.2454 30.7259C88.9329 30.901 88.6867 31.1567 88.5067 31.4929C88.3316 31.8243 88.2416 32.2244 88.2369 32.6932ZM104.688 34.3551V28.0909H107.713V39H104.808V37.0185H104.695C104.448 37.6577 104.039 38.1714 103.466 38.5597C102.898 38.9479 102.204 39.142 101.385 39.142C100.656 39.142 100.014 38.9763 99.4602 38.6449C98.9063 38.3134 98.473 37.8423 98.1605 37.2315C97.8527 36.6207 97.6965 35.8892 97.6918 35.0369V28.0909H100.717V34.4972C100.722 35.1411 100.895 35.6501 101.236 36.0241C101.577 36.3982 102.034 36.5852 102.607 36.5852C102.971 36.5852 103.312 36.5024 103.629 36.3366C103.946 36.1662 104.202 35.9152 104.396 35.5838C104.595 35.2524 104.692 34.8428 104.688 34.3551ZM110.19 39V24.4545H113.216V29.9233H113.308C113.44 29.6297 113.632 29.3314 113.883 29.0284C114.139 28.7206 114.47 28.465 114.877 28.2614C115.289 28.053 115.801 27.9489 116.412 27.9489C117.207 27.9489 117.941 28.1572 118.613 28.5739C119.286 28.9858 119.823 29.6084 120.225 30.4418C120.628 31.2704 120.829 32.3097 120.829 33.5597C120.829 34.7765 120.633 35.804 120.24 36.642C119.851 37.4754 119.321 38.1075 118.649 38.5384C117.981 38.9645 117.233 39.1776 116.404 39.1776C115.817 39.1776 115.318 39.0805 114.906 38.8864C114.499 38.6922 114.165 38.4484 113.904 38.1548C113.644 37.8565 113.445 37.5559 113.308 37.2528H113.173V39H110.19ZM113.152 33.5455C113.152 34.1941 113.242 34.7599 113.422 35.2429C113.601 35.7259 113.862 36.1023 114.203 36.3722C114.544 36.6373 114.958 36.7699 115.446 36.7699C115.938 36.7699 116.355 36.6349 116.696 36.3651C117.037 36.0904 117.295 35.7116 117.47 35.2287C117.65 34.741 117.74 34.1799 117.74 33.5455C117.74 32.9157 117.652 32.3617 117.477 31.8835C117.302 31.4053 117.044 31.0312 116.703 30.7614C116.362 30.4915 115.943 30.3565 115.446 30.3565C114.953 30.3565 114.537 30.4867 114.196 30.7472C113.859 31.0076 113.601 31.3769 113.422 31.8551C113.242 32.3333 113.152 32.8968 113.152 33.5455ZM135.424 28.6378C135.368 28.0649 135.124 27.6198 134.693 27.3026C134.262 26.9853 133.677 26.8267 132.939 26.8267C132.437 26.8267 132.013 26.8977 131.667 27.0398C131.322 27.1771 131.056 27.3688 130.872 27.6151C130.692 27.8613 130.602 28.1406 130.602 28.4531C130.592 28.7135 130.647 28.9408 130.765 29.1349C130.888 29.3291 131.056 29.4972 131.27 29.6392C131.483 29.7765 131.729 29.8973 132.008 30.0014C132.288 30.1009 132.586 30.1861 132.903 30.2571L134.21 30.5696C134.844 30.7116 135.427 30.901 135.957 31.1378C136.487 31.3745 136.947 31.6657 137.335 32.0114C137.723 32.357 138.024 32.7642 138.237 33.233C138.455 33.7017 138.566 34.2391 138.571 34.8452C138.566 35.7353 138.339 36.5071 137.889 37.1605C137.444 37.8092 136.8 38.3134 135.957 38.6733C135.119 39.0284 134.108 39.206 132.924 39.206C131.75 39.206 130.727 39.026 129.856 38.6662C128.99 38.3063 128.313 37.7737 127.825 37.0682C127.342 36.358 127.089 35.4796 127.065 34.4332H130.041C130.074 34.9209 130.214 35.3281 130.46 35.6548C130.711 35.9768 131.045 36.2206 131.461 36.3864C131.883 36.5473 132.359 36.6278 132.889 36.6278C133.41 36.6278 133.862 36.5521 134.245 36.4006C134.634 36.2491 134.934 36.0384 135.147 35.7685C135.36 35.4986 135.467 35.1884 135.467 34.8381C135.467 34.5114 135.37 34.2367 135.176 34.0142C134.986 33.7917 134.707 33.6023 134.338 33.446C133.973 33.2898 133.526 33.1477 132.995 33.0199L131.412 32.6222C130.185 32.3239 129.217 31.8575 128.507 31.223C127.797 30.5885 127.444 29.7339 127.449 28.6591C127.444 27.7784 127.678 27.009 128.152 26.3509C128.63 25.6927 129.286 25.179 130.119 24.8097C130.952 24.4403 131.899 24.2557 132.96 24.2557C134.039 24.2557 134.982 24.4403 135.787 24.8097C136.596 25.179 137.226 25.6927 137.676 26.3509C138.126 27.009 138.358 27.7713 138.372 28.6378H135.424ZM146.385 28.0909V30.3636H139.815V28.0909H146.385ZM141.307 25.4773H144.332V35.6477C144.332 35.9271 144.375 36.1449 144.46 36.3011C144.545 36.4527 144.664 36.5592 144.815 36.6207C144.972 36.6823 145.152 36.7131 145.355 36.7131C145.497 36.7131 145.639 36.7012 145.781 36.6776C145.923 36.6491 146.032 36.6278 146.108 36.6136L146.584 38.8651C146.432 38.9124 146.219 38.9669 145.945 39.0284C145.67 39.0947 145.336 39.1349 144.943 39.1491C144.214 39.1776 143.575 39.0805 143.026 38.858C142.481 38.6354 142.057 38.2898 141.754 37.821C141.451 37.3523 141.302 36.7604 141.307 36.0455V25.4773ZM151.467 39.206C150.771 39.206 150.15 39.0852 149.606 38.8438C149.061 38.5975 148.63 38.2353 148.313 37.7571C148.001 37.2741 147.844 36.6728 147.844 35.9531C147.844 35.3471 147.956 34.8381 148.178 34.4261C148.401 34.0142 148.704 33.6828 149.087 33.4318C149.471 33.1809 149.906 32.9915 150.394 32.8636C150.887 32.7358 151.403 32.6458 151.942 32.5938C152.577 32.5275 153.088 32.4659 153.477 32.4091C153.865 32.3475 154.147 32.2576 154.322 32.1392C154.497 32.0208 154.585 31.8456 154.585 31.6136V31.571C154.585 31.1212 154.442 30.7732 154.158 30.527C153.879 30.2808 153.481 30.1577 152.965 30.1577C152.421 30.1577 151.987 30.2784 151.665 30.5199C151.344 30.7566 151.13 31.0549 151.026 31.4148L148.228 31.1875C148.37 30.5246 148.649 29.9517 149.066 29.4688C149.483 28.9811 150.02 28.607 150.678 28.3466C151.341 28.0814 152.108 27.9489 152.979 27.9489C153.585 27.9489 154.165 28.0199 154.719 28.1619C155.278 28.304 155.773 28.5241 156.204 28.8224C156.639 29.1207 156.983 29.5043 157.234 29.973C157.485 30.437 157.61 30.9934 157.61 31.642V39H154.741V37.4872H154.656C154.48 37.8281 154.246 38.1288 153.952 38.3892C153.659 38.6449 153.306 38.8461 152.894 38.9929C152.482 39.1349 152.006 39.206 151.467 39.206ZM152.333 37.1179C152.778 37.1179 153.171 37.0303 153.512 36.8551C153.853 36.6752 154.121 36.4337 154.315 36.1307C154.509 35.8277 154.606 35.4844 154.606 35.1009V33.9432C154.511 34.0047 154.381 34.0616 154.215 34.1136C154.054 34.161 153.872 34.206 153.668 34.2486C153.465 34.2865 153.261 34.322 153.058 34.3551C152.854 34.3835 152.669 34.4096 152.504 34.4332C152.148 34.4853 151.838 34.5682 151.573 34.6818C151.308 34.7955 151.102 34.9493 150.955 35.1435C150.808 35.3329 150.735 35.5696 150.735 35.8537C150.735 36.2656 150.884 36.5805 151.183 36.7983C151.486 37.0114 151.869 37.1179 152.333 37.1179ZM165.76 28.0909V30.3636H159.19V28.0909H165.76ZM160.682 25.4773H163.707V35.6477C163.707 35.9271 163.75 36.1449 163.835 36.3011C163.92 36.4527 164.039 36.5592 164.19 36.6207C164.347 36.6823 164.527 36.7131 164.73 36.7131C164.872 36.7131 165.014 36.7012 165.156 36.6776C165.298 36.6491 165.407 36.6278 165.483 36.6136L165.959 38.8651C165.807 38.9124 165.594 38.9669 165.32 39.0284C165.045 39.0947 164.711 39.1349 164.318 39.1491C163.589 39.1776 162.95 39.0805 162.401 38.858C161.856 38.6354 161.432 38.2898 161.129 37.821C160.826 37.3523 160.677 36.7604 160.682 36.0455V25.4773ZM176.671 31.2017L173.901 31.3722C173.854 31.1354 173.752 30.9223 173.596 30.733C173.439 30.5388 173.233 30.3849 172.978 30.2713C172.727 30.1529 172.426 30.0938 172.076 30.0938C171.607 30.0938 171.212 30.1932 170.89 30.392C170.568 30.5862 170.407 30.8466 170.407 31.1733C170.407 31.4337 170.511 31.6539 170.719 31.8338C170.927 32.0137 171.285 32.1581 171.792 32.267L173.766 32.6648C174.827 32.8826 175.617 33.233 176.138 33.7159C176.659 34.1989 176.919 34.8333 176.919 35.6193C176.919 36.3343 176.709 36.9616 176.287 37.5014C175.871 38.0412 175.298 38.4626 174.569 38.7656C173.844 39.0639 173.008 39.2131 172.061 39.2131C170.617 39.2131 169.467 38.9124 168.61 38.3111C167.757 37.705 167.258 36.8812 167.111 35.8395L170.087 35.6832C170.177 36.1236 170.395 36.4598 170.74 36.6918C171.086 36.919 171.529 37.0327 172.069 37.0327C172.599 37.0327 173.025 36.9309 173.347 36.7273C173.674 36.5189 173.839 36.2514 173.844 35.9247C173.839 35.6501 173.723 35.4252 173.496 35.25C173.269 35.0701 172.918 34.9328 172.445 34.8381L170.556 34.4616C169.49 34.2486 168.697 33.8793 168.176 33.3537C167.66 32.8281 167.402 32.1581 167.402 31.3438C167.402 30.643 167.592 30.0393 167.971 29.5327C168.354 29.026 168.891 28.6354 169.583 28.3608C170.279 28.0862 171.093 27.9489 172.026 27.9489C173.404 27.9489 174.488 28.2401 175.279 28.8224C176.074 29.4048 176.538 30.1979 176.671 31.2017Z" fill="black"/>
<path fill-rule="evenodd" clip-rule="evenodd" d="M27.0007 76C27.133 75.9999 27.2634 76.0358 27.3749 76.1036C27.4873 76.1715 27.578 76.2685 27.6366 76.3837L29.4149 79.8854L33.3929 80.4472C33.5242 80.4656 33.6471 80.5193 33.7482 80.602C33.8493 80.6848 33.9239 80.7934 33.9655 80.9155C34.0061 81.0377 34.0109 81.1685 33.9797 81.2932C33.9476 81.4178 33.8805 81.5315 33.786 81.6212L30.9078 84.3473L31.5872 88.1951C31.6099 88.3217 31.5957 88.4521 31.5456 88.5705C31.4955 88.6898 31.4124 88.7926 31.3056 88.8688C31.1989 88.9441 31.0722 88.9891 30.94 88.9982C30.8086 89.0074 30.6763 88.9808 30.5592 88.9211L27.0007 87.1037L23.4422 88.9211C23.325 88.9808 23.1937 89.0074 23.0614 88.9982C22.93 88.9891 22.8034 88.9441 22.6967 88.8688C22.5899 88.7935 22.5067 88.6907 22.4567 88.5714C22.4066 88.453 22.3924 88.3227 22.4141 88.196L23.0945 84.3464L20.2144 81.6212C20.1199 81.5315 20.0528 81.4178 20.0207 81.293C19.9886 81.1682 19.9942 81.0372 20.0349 80.9148C20.0755 80.7926 20.1511 80.6838 20.2522 80.601C20.3533 80.5182 20.4771 80.4646 20.6075 80.4463L24.5855 79.8854L26.3648 76.3837C26.4233 76.2685 26.5141 76.1715 26.6265 76.1036C26.7389 76.0358 26.8684 75.9999 27.0007 76ZM27.0007 78.2442L25.692 80.8189C25.641 80.9189 25.5663 81.0053 25.4737 81.0709C25.3811 81.1364 25.2725 81.1791 25.1591 81.1953L22.2327 81.6083L24.3493 83.613C24.4315 83.6909 24.4939 83.7871 24.5288 83.8932C24.5647 83.9994 24.5732 84.1124 24.5534 84.2224L24.0545 87.0532L26.6709 85.7168C26.7729 85.6648 26.8863 85.6377 27.0007 85.6377C27.1159 85.6377 27.2293 85.6648 27.3304 85.7168L29.9478 87.0532L29.447 84.2224C29.4281 84.1124 29.4366 83.9994 29.4716 83.8932C29.5075 83.7871 29.5689 83.6909 29.6511 83.613L31.7677 81.6092L28.8423 81.1962C28.7289 81.18 28.6212 81.1373 28.5286 81.0718C28.435 81.0063 28.3604 80.9198 28.3094 80.8198L27.0007 78.2442Z" fill="#FBD656"/>
<path d="M43.7727 78.6136V77.3636H52.5V78.6136H48.8409V89H47.4318V78.6136H43.7727ZM56.7727 89.1818C55.9848 89.1818 55.2936 88.9943 54.6989 88.6193C54.108 88.2443 53.6458 87.7197 53.3125 87.0455C52.983 86.3712 52.8182 85.5833 52.8182 84.6818C52.8182 83.7727 52.983 82.9792 53.3125 82.3011C53.6458 81.6231 54.108 81.0966 54.6989 80.7216C55.2936 80.3466 55.9848 80.1591 56.7727 80.1591C57.5606 80.1591 58.25 80.3466 58.8409 80.7216C59.4356 81.0966 59.8977 81.6231 60.2273 82.3011C60.5606 82.9792 60.7273 83.7727 60.7273 84.6818C60.7273 85.5833 60.5606 86.3712 60.2273 87.0455C59.8977 87.7197 59.4356 88.2443 58.8409 88.6193C58.25 88.9943 57.5606 89.1818 56.7727 89.1818ZM56.7727 87.9773C57.3712 87.9773 57.8636 87.8239 58.25 87.517C58.6364 87.2102 58.9223 86.8068 59.108 86.3068C59.2936 85.8068 59.3864 85.2652 59.3864 84.6818C59.3864 84.0985 59.2936 83.5549 59.108 83.0511C58.9223 82.5473 58.6364 82.1402 58.25 81.8295C57.8636 81.5189 57.3712 81.3636 56.7727 81.3636C56.1742 81.3636 55.6818 81.5189 55.2955 81.8295C54.9091 82.1402 54.6231 82.5473 54.4375 83.0511C54.2519 83.5549 54.1591 84.0985 54.1591 84.6818C54.1591 85.2652 54.2519 85.8068 54.4375 86.3068C54.6231 86.8068 54.9091 87.2102 55.2955 87.517C55.6818 87.8239 56.1742 87.9773 56.7727 87.9773ZM66.5696 80.2727V81.4091H62.0469V80.2727H66.5696ZM63.3651 78.1818H64.706V86.5C64.706 86.8788 64.7609 87.1629 64.8707 87.3523C64.9844 87.5379 65.1283 87.6629 65.3026 87.7273C65.4806 87.7879 65.6681 87.8182 65.8651 87.8182C66.0128 87.8182 66.134 87.8106 66.2287 87.7955C66.3234 87.7765 66.3991 87.7614 66.456 87.75L66.7287 88.9545C66.6378 88.9886 66.5109 89.0227 66.348 89.0568C66.1851 89.0947 65.9787 89.1136 65.7287 89.1136C65.3499 89.1136 64.9787 89.0322 64.6151 88.8693C64.2552 88.7064 63.956 88.4583 63.7173 88.125C63.4825 87.7917 63.3651 87.3712 63.3651 86.8636V78.1818ZM71.1548 89.2045C70.6018 89.2045 70.0999 89.1004 69.6491 88.892C69.1984 88.6799 68.8404 88.375 68.5753 87.9773C68.3101 87.5758 68.1776 87.0909 68.1776 86.5227C68.1776 86.0227 68.276 85.6174 68.473 85.3068C68.67 84.9924 68.9332 84.7462 69.2628 84.5682C69.5923 84.3902 69.956 84.2576 70.3537 84.1705C70.7552 84.0795 71.1586 84.0076 71.5639 83.9545C72.0942 83.8864 72.5241 83.8352 72.8537 83.8011C73.187 83.7633 73.4295 83.7008 73.581 83.6136C73.7363 83.5265 73.8139 83.375 73.8139 83.1591V83.1136C73.8139 82.553 73.6605 82.1174 73.3537 81.8068C73.0507 81.4962 72.5904 81.3409 71.973 81.3409C71.3329 81.3409 70.831 81.4811 70.4673 81.7614C70.1037 82.0417 69.848 82.3409 69.7003 82.6591L68.4276 82.2045C68.6548 81.6742 68.9579 81.2614 69.3366 80.9659C69.7192 80.6667 70.1359 80.4583 70.5866 80.3409C71.0412 80.2197 71.4882 80.1591 71.9276 80.1591C72.2079 80.1591 72.5298 80.1932 72.8935 80.2614C73.2609 80.3258 73.6151 80.4602 73.956 80.6648C74.3007 80.8693 74.5866 81.178 74.8139 81.5909C75.0412 82.0038 75.1548 82.5568 75.1548 83.25V89H73.8139V87.8182H73.7457C73.6548 88.0076 73.5033 88.2102 73.2912 88.4261C73.0791 88.642 72.7969 88.8258 72.4446 88.9773C72.0923 89.1288 71.6624 89.2045 71.1548 89.2045ZM71.3594 88C71.8897 88 72.3366 87.8958 72.7003 87.6875C73.0677 87.4792 73.3442 87.2102 73.5298 86.8807C73.7192 86.5511 73.8139 86.2045 73.8139 85.8409V84.6136C73.7571 84.6818 73.6321 84.7443 73.4389 84.8011C73.2495 84.8542 73.0298 84.9015 72.7798 84.9432C72.5336 84.9811 72.2931 85.0152 72.0582 85.0455C71.8272 85.072 71.6397 85.0947 71.4957 85.1136C71.1473 85.1591 70.8215 85.233 70.5185 85.3352C70.2192 85.4337 69.9768 85.5833 69.7912 85.7841C69.6094 85.9811 69.5185 86.25 69.5185 86.5909C69.5185 87.0568 69.6908 87.4091 70.0355 87.6477C70.384 87.8826 70.8253 88 71.3594 88ZM78.9432 77.3636V89H77.6023V77.3636H78.9432ZM95.4446 81H94.0355C93.9522 80.5947 93.8063 80.2386 93.598 79.9318C93.3935 79.625 93.1435 79.3674 92.848 79.1591C92.5563 78.947 92.2325 78.7879 91.8764 78.6818C91.5204 78.5758 91.1491 78.5227 90.7628 78.5227C90.0582 78.5227 89.42 78.7008 88.848 79.0568C88.2798 79.4129 87.8272 79.9375 87.4901 80.6307C87.1567 81.3239 86.9901 82.1742 86.9901 83.1818C86.9901 84.1894 87.1567 85.0398 87.4901 85.733C87.8272 86.4261 88.2798 86.9508 88.848 87.3068C89.42 87.6629 90.0582 87.8409 90.7628 87.8409C91.1491 87.8409 91.5204 87.7879 91.8764 87.6818C92.2325 87.5758 92.5563 87.4186 92.848 87.2102C93.1435 86.9981 93.3935 86.7386 93.598 86.4318C93.8063 86.1212 93.9522 85.7652 94.0355 85.3636H95.4446C95.3385 85.9583 95.1454 86.4905 94.8651 86.9602C94.5848 87.4299 94.2363 87.8295 93.8196 88.1591C93.4029 88.4848 92.9351 88.733 92.4162 88.9034C91.901 89.0739 91.3499 89.1591 90.7628 89.1591C89.7704 89.1591 88.8878 88.9167 88.1151 88.4318C87.3423 87.947 86.7344 87.2576 86.2912 86.3636C85.848 85.4697 85.6264 84.4091 85.6264 83.1818C85.6264 81.9545 85.848 80.8939 86.2912 80C86.7344 79.1061 87.3423 78.4167 88.1151 77.9318C88.8878 77.447 89.7704 77.2045 90.7628 77.2045C91.3499 77.2045 91.901 77.2898 92.4162 77.4602C92.9351 77.6307 93.4029 77.8807 93.8196 78.2102C94.2363 78.536 94.5848 78.9337 94.8651 79.4034C95.1454 79.8693 95.3385 80.4015 95.4446 81ZM101.085 89.1818C100.297 89.1818 99.6061 88.9943 99.0114 88.6193C98.4205 88.2443 97.9583 87.7197 97.625 87.0455C97.2955 86.3712 97.1307 85.5833 97.1307 84.6818C97.1307 83.7727 97.2955 82.9792 97.625 82.3011C97.9583 81.6231 98.4205 81.0966 99.0114 80.7216C99.6061 80.3466 100.297 80.1591 101.085 80.1591C101.873 80.1591 102.563 80.3466 103.153 80.7216C103.748 81.0966 104.21 81.6231 104.54 82.3011C104.873 82.9792 105.04 83.7727 105.04 84.6818C105.04 85.5833 104.873 86.3712 104.54 87.0455C104.21 87.7197 103.748 88.2443 103.153 88.6193C102.563 88.9943 101.873 89.1818 101.085 89.1818ZM101.085 87.9773C101.684 87.9773 102.176 87.8239 102.562 87.517C102.949 87.2102 103.235 86.8068 103.42 86.3068C103.606 85.8068 103.699 85.2652 103.699 84.6818C103.699 84.0985 103.606 83.5549 103.42 83.0511C103.235 82.5473 102.949 82.1402 102.562 81.8295C102.176 81.5189 101.684 81.3636 101.085 81.3636C100.487 81.3636 99.9943 81.5189 99.608 81.8295C99.2216 82.1402 98.9356 82.5473 98.75 83.0511C98.5644 83.5549 98.4716 84.0985 98.4716 84.6818C98.4716 85.2652 98.5644 85.8068 98.75 86.3068C98.9356 86.8068 99.2216 87.2102 99.608 87.517C99.9943 87.8239 100.487 87.9773 101.085 87.9773ZM107.087 89V80.2727H108.382V81.6364H108.496C108.678 81.1705 108.971 80.8087 109.376 80.5511C109.782 80.2898 110.268 80.1591 110.837 80.1591C111.412 80.1591 111.892 80.2898 112.274 80.5511C112.661 80.8087 112.962 81.1705 113.178 81.6364H113.268C113.492 81.1856 113.827 80.8277 114.274 80.5625C114.721 80.2936 115.257 80.1591 115.882 80.1591C116.662 80.1591 117.301 80.4034 117.797 80.892C118.293 81.3769 118.541 82.1326 118.541 83.1591V89H117.2V83.1591C117.2 82.5152 117.024 82.0549 116.672 81.7784C116.32 81.5019 115.905 81.3636 115.428 81.3636C114.814 81.3636 114.339 81.5492 114.001 81.9205C113.664 82.2879 113.496 82.7538 113.496 83.3182V89H112.132V83.0227C112.132 82.5265 111.971 82.1269 111.649 81.8239C111.327 81.517 110.912 81.3636 110.405 81.3636C110.056 81.3636 109.731 81.4564 109.428 81.642C109.128 81.8277 108.886 82.0852 108.7 82.4148C108.518 82.7405 108.428 83.1174 108.428 83.5455V89H107.087ZM120.993 89V80.2727H122.288V81.6364H122.402C122.584 81.1705 122.877 80.8087 123.283 80.5511C123.688 80.2898 124.175 80.1591 124.743 80.1591C125.319 80.1591 125.798 80.2898 126.18 80.5511C126.567 80.8087 126.868 81.1705 127.084 81.6364H127.175C127.398 81.1856 127.733 80.8277 128.18 80.5625C128.627 80.2936 129.163 80.1591 129.788 80.1591C130.569 80.1591 131.207 80.4034 131.703 80.892C132.199 81.3769 132.447 82.1326 132.447 83.1591V89H131.107V83.1591C131.107 82.5152 130.93 82.0549 130.578 81.7784C130.226 81.5019 129.811 81.3636 129.334 81.3636C128.72 81.3636 128.245 81.5492 127.908 81.9205C127.571 82.2879 127.402 82.7538 127.402 83.3182V89H126.038V83.0227C126.038 82.5265 125.877 82.1269 125.555 81.8239C125.233 81.517 124.819 81.3636 124.311 81.3636C123.963 81.3636 123.637 81.4564 123.334 81.642C123.035 81.8277 122.792 82.0852 122.607 82.4148C122.425 82.7405 122.334 83.1174 122.334 83.5455V89H120.993ZM134.899 89V80.2727H136.24V89H134.899ZM135.581 78.8182C135.32 78.8182 135.094 78.7292 134.905 78.5511C134.719 78.3731 134.626 78.1591 134.626 77.9091C134.626 77.6591 134.719 77.4451 134.905 77.267C135.094 77.089 135.32 77 135.581 77C135.842 77 136.066 77.089 136.251 77.267C136.441 77.4451 136.536 77.6591 136.536 77.9091C136.536 78.1591 136.441 78.3731 136.251 78.5511C136.066 78.7292 135.842 78.8182 135.581 78.8182ZM142.491 80.2727V81.4091H137.969V80.2727H142.491ZM139.287 78.1818H140.628V86.5C140.628 86.8788 140.683 87.1629 140.793 87.3523C140.906 87.5379 141.05 87.6629 141.224 87.7273C141.402 87.7879 141.59 87.8182 141.787 87.8182C141.935 87.8182 142.056 87.8106 142.151 87.7955C142.245 87.7765 142.321 87.7614 142.378 87.75L142.651 88.9545C142.56 88.9886 142.433 89.0227 142.27 89.0568C142.107 89.0947 141.901 89.1136 141.651 89.1136C141.272 89.1136 140.901 89.0322 140.537 88.8693C140.177 88.7064 139.878 88.4583 139.639 88.125C139.404 87.7917 139.287 87.3712 139.287 86.8636V78.1818ZM150.534 82.2273L149.33 82.5682C149.254 82.3674 149.142 82.1723 148.994 81.983C148.85 81.7898 148.653 81.6307 148.403 81.5057C148.153 81.3807 147.833 81.3182 147.443 81.3182C146.909 81.3182 146.464 81.4413 146.108 81.6875C145.756 81.9299 145.58 82.2386 145.58 82.6136C145.58 82.947 145.701 83.2102 145.943 83.4034C146.186 83.5966 146.564 83.7576 147.08 83.8864L148.375 84.2045C149.155 84.3939 149.737 84.6837 150.119 85.0739C150.502 85.4602 150.693 85.9583 150.693 86.5682C150.693 87.0682 150.549 87.5152 150.261 87.9091C149.977 88.303 149.58 88.6136 149.068 88.8409C148.557 89.0682 147.962 89.1818 147.284 89.1818C146.394 89.1818 145.657 88.9886 145.074 88.6023C144.491 88.2159 144.121 87.6515 143.966 86.9091L145.239 86.5909C145.36 87.0606 145.589 87.4129 145.926 87.6477C146.267 87.8826 146.712 88 147.261 88C147.886 88 148.383 87.8674 148.75 87.6023C149.121 87.3333 149.307 87.0114 149.307 86.6364C149.307 86.3333 149.201 86.0795 148.989 85.875C148.777 85.6667 148.451 85.5114 148.011 85.4091L146.557 85.0682C145.758 84.8788 145.17 84.5852 144.795 84.1875C144.424 83.786 144.239 83.2841 144.239 82.6818C144.239 82.1894 144.377 81.7538 144.653 81.375C144.934 80.9962 145.314 80.6989 145.795 80.483C146.28 80.267 146.83 80.1591 147.443 80.1591C148.307 80.1591 148.985 80.3485 149.477 80.7273C149.973 81.1061 150.326 81.6061 150.534 82.2273ZM157.689 83.1818C157.689 81.75 157.875 80.4337 158.246 79.233C158.621 78.0284 159.155 76.9205 159.848 75.9091H161.03C160.757 76.2841 160.501 76.7462 160.263 77.2955C160.028 77.8409 159.821 78.4413 159.643 79.0966C159.465 79.7481 159.325 80.4223 159.223 81.1193C159.125 81.8163 159.075 82.5038 159.075 83.1818C159.075 84.0833 159.162 84.9981 159.337 85.9261C159.511 86.8542 159.746 87.7159 160.041 88.5114C160.337 89.3068 160.666 89.9545 161.03 90.4545H159.848C159.155 89.4432 158.621 88.3371 158.246 87.1364C157.875 85.9318 157.689 84.6136 157.689 83.1818ZM162.986 89V87.9773L166.827 83.7727C167.277 83.2803 167.649 82.8523 167.94 82.4886C168.232 82.1212 168.448 81.7765 168.588 81.4545C168.732 81.1288 168.804 80.7879 168.804 80.4318C168.804 80.0227 168.705 79.6686 168.509 79.3693C168.315 79.0701 168.05 78.839 167.713 78.6761C167.376 78.5133 166.997 78.4318 166.577 78.4318C166.13 78.4318 165.74 78.5246 165.406 78.7102C165.077 78.892 164.821 79.1477 164.639 79.4773C164.461 79.8068 164.372 80.1932 164.372 80.6364H163.031C163.031 79.9545 163.188 79.3561 163.503 78.8409C163.817 78.3258 164.245 77.9242 164.787 77.6364C165.332 77.3485 165.944 77.2045 166.622 77.2045C167.304 77.2045 167.908 77.3485 168.435 77.6364C168.961 77.9242 169.374 78.3125 169.673 78.8011C169.973 79.2898 170.122 79.8333 170.122 80.4318C170.122 80.8598 170.045 81.2784 169.889 81.6875C169.738 82.0928 169.473 82.5455 169.094 83.0455C168.719 83.5417 168.198 84.1477 167.531 84.8636L164.918 87.6591V87.75H170.327V89H162.986ZM176.469 89.1591C175.613 89.1591 174.884 88.9261 174.281 88.4602C173.679 87.9905 173.219 87.3106 172.901 86.4205C172.582 85.5265 172.423 84.447 172.423 83.1818C172.423 81.9242 172.582 80.8504 172.901 79.9602C173.223 79.0663 173.685 78.3845 174.287 77.9148C174.893 77.4413 175.62 77.2045 176.469 77.2045C177.317 77.2045 178.043 77.4413 178.645 77.9148C179.251 78.3845 179.713 79.0663 180.031 79.9602C180.353 80.8504 180.514 81.9242 180.514 83.1818C180.514 84.447 180.355 85.5265 180.037 86.4205C179.719 87.3106 179.259 87.9905 178.656 88.4602C178.054 88.9261 177.325 89.1591 176.469 89.1591ZM176.469 87.9091C177.317 87.9091 177.976 87.5 178.446 86.6818C178.916 85.8636 179.151 84.697 179.151 83.1818C179.151 82.1742 179.043 81.3163 178.827 80.608C178.615 79.8996 178.308 79.3598 177.906 78.9886C177.509 78.6174 177.029 78.4318 176.469 78.4318C175.628 78.4318 174.971 78.8466 174.497 79.6761C174.024 80.5019 173.787 81.6705 173.787 83.1818C173.787 84.1894 173.893 85.0455 174.105 85.75C174.317 86.4545 174.622 86.9905 175.02 87.358C175.421 87.7254 175.904 87.9091 176.469 87.9091ZM182.673 89V87.9773L186.514 83.7727C186.965 83.2803 187.336 82.8523 187.628 82.4886C187.92 82.1212 188.135 81.7765 188.276 81.4545C188.42 81.1288 188.491 80.7879 188.491 80.4318C188.491 80.0227 188.393 79.6686 188.196 79.3693C188.003 79.0701 187.738 78.839 187.401 78.6761C187.063 78.5133 186.685 78.4318 186.264 78.4318C185.817 78.4318 185.427 78.5246 185.094 78.7102C184.764 78.892 184.509 79.1477 184.327 79.4773C184.149 79.8068 184.06 80.1932 184.06 80.6364H182.719C182.719 79.9545 182.876 79.3561 183.19 78.8409C183.505 78.3258 183.933 77.9242 184.474 77.6364C185.02 77.3485 185.632 77.2045 186.31 77.2045C186.991 77.2045 187.596 77.3485 188.122 77.6364C188.649 77.9242 189.062 78.3125 189.361 78.8011C189.66 79.2898 189.81 79.8333 189.81 80.4318C189.81 80.8598 189.732 81.2784 189.577 81.6875C189.425 82.0928 189.16 82.5455 188.781 83.0455C188.406 83.5417 187.885 84.1477 187.219 84.8636L184.605 87.6591V87.75H190.014V89H182.673ZM196.293 89.1591C195.543 89.1591 194.874 89.0303 194.287 88.7727C193.704 88.5152 193.24 88.1572 192.895 87.6989C192.554 87.2367 192.368 86.7008 192.338 86.0909H193.77C193.8 86.4659 193.929 86.7898 194.156 87.0625C194.384 87.3314 194.681 87.5398 195.048 87.6875C195.416 87.8352 195.823 87.9091 196.27 87.9091C196.77 87.9091 197.213 87.822 197.599 87.6477C197.986 87.4735 198.289 87.2311 198.509 86.9205C198.728 86.6098 198.838 86.25 198.838 85.8409C198.838 85.4129 198.732 85.036 198.52 84.7102C198.308 84.3807 197.997 84.1231 197.588 83.9375C197.179 83.7519 196.679 83.6591 196.088 83.6591H195.156V82.4091H196.088C196.55 82.4091 196.955 82.3258 197.304 82.1591C197.656 81.9924 197.931 81.7576 198.128 81.4545C198.329 81.1515 198.429 80.7955 198.429 80.3864C198.429 79.9924 198.342 79.6496 198.168 79.358C197.993 79.0663 197.747 78.839 197.429 78.6761C197.115 78.5133 196.743 78.4318 196.315 78.4318C195.914 78.4318 195.535 78.5057 195.179 78.6534C194.827 78.7973 194.539 79.0076 194.315 79.2841C194.092 79.5568 193.971 79.8864 193.952 80.2727H192.588C192.611 79.6629 192.795 79.1288 193.139 78.6705C193.484 78.2083 193.935 77.8485 194.491 77.5909C195.052 77.3333 195.668 77.2045 196.338 77.2045C197.058 77.2045 197.675 77.3504 198.19 77.642C198.705 77.9299 199.101 78.3106 199.378 78.7841C199.654 79.2576 199.793 79.7689 199.793 80.3182C199.793 80.9735 199.62 81.5322 199.276 81.9943C198.935 82.4564 198.471 82.7765 197.884 82.9545V83.0455C198.618 83.1667 199.192 83.4792 199.605 83.983C200.018 84.483 200.224 85.1023 200.224 85.8409C200.224 86.4735 200.052 87.0417 199.707 87.5455C199.366 88.0455 198.901 88.4394 198.31 88.7273C197.719 89.0152 197.046 89.1591 196.293 89.1591ZM205.435 83.1818C205.435 84.6136 205.247 85.9318 204.872 87.1364C204.501 88.3371 203.969 89.4432 203.276 90.4545H202.094C202.366 90.0795 202.62 89.6174 202.855 89.0682C203.094 88.5227 203.302 87.9242 203.48 87.2727C203.658 86.6174 203.796 85.9413 203.895 85.2443C203.997 84.5436 204.048 83.8561 204.048 83.1818C204.048 82.2803 203.961 81.3655 203.787 80.4375C203.613 79.5095 203.378 78.6477 203.082 77.8523C202.787 77.0568 202.457 76.4091 202.094 75.9091H203.276C203.969 76.9205 204.501 78.0284 204.872 79.233C205.247 80.4337 205.435 81.75 205.435 83.1818ZM209.345 87.5114C209.065 87.5114 208.824 87.411 208.624 87.2102C208.423 87.0095 208.322 86.7689 208.322 86.4886C208.322 86.2083 208.423 85.9678 208.624 85.767C208.824 85.5663 209.065 85.4659 209.345 85.4659C209.625 85.4659 209.866 85.5663 210.067 85.767C210.268 85.9678 210.368 86.2083 210.368 86.4886C210.368 86.6742 210.321 86.8447 210.226 87C210.135 87.1553 210.012 87.2803 209.857 87.375C209.705 87.4659 209.535 87.5114 209.345 87.5114ZM209.345 81.625C209.065 81.625 208.824 81.5246 208.624 81.3239C208.423 81.1231 208.322 80.8826 208.322 80.6023C208.322 80.322 208.423 80.0814 208.624 79.8807C208.824 79.6799 209.065 79.5795 209.345 79.5795C209.625 79.5795 209.866 79.6799 210.067 79.8807C210.268 80.0814 210.368 80.322 210.368 80.6023C210.368 80.7879 210.321 80.9583 210.226 81.1136C210.135 81.2689 210.012 81.3939 209.857 81.4886C209.705 81.5795 209.535 81.625 209.345 81.625Z" fill="black"/>
<path d="M255.006 77.3636V89H252.545V79.6989H252.477L249.812 81.3693V79.1875L252.693 77.3636H255.006ZM258.584 89.1477C258.209 89.1477 257.887 89.0152 257.618 88.75C257.353 88.4811 257.22 88.1591 257.22 87.7841C257.22 87.4129 257.353 87.0947 257.618 86.8295C257.887 86.5644 258.209 86.4318 258.584 86.4318C258.947 86.4318 259.266 86.5644 259.538 86.8295C259.811 87.0947 259.947 87.4129 259.947 87.7841C259.947 88.0341 259.883 88.2633 259.754 88.4716C259.629 88.6761 259.464 88.8409 259.26 88.9659C259.055 89.0871 258.83 89.1477 258.584 89.1477ZM266.068 89.1591C265.265 89.1591 264.549 89.0114 263.92 88.7159C263.295 88.4205 262.799 88.0133 262.432 87.4943C262.064 86.9754 261.873 86.3807 261.858 85.7102H264.244C264.271 86.161 264.46 86.5265 264.812 86.8068C265.165 87.0871 265.583 87.2273 266.068 87.2273C266.455 87.2273 266.795 87.142 267.091 86.9716C267.39 86.7973 267.623 86.5568 267.79 86.25C267.96 85.9394 268.045 85.5833 268.045 85.1818C268.045 84.7727 267.958 84.4129 267.784 84.1023C267.614 83.7917 267.377 83.5492 267.074 83.375C266.771 83.2008 266.424 83.1117 266.034 83.108C265.693 83.108 265.362 83.178 265.04 83.3182C264.722 83.4583 264.473 83.6496 264.295 83.892L262.108 83.5L262.659 77.3636H269.773V79.375H264.688L264.386 82.2898H264.455C264.659 82.0019 264.968 81.7633 265.381 81.5739C265.794 81.3845 266.256 81.2898 266.767 81.2898C267.468 81.2898 268.093 81.4545 268.642 81.7841C269.191 82.1136 269.625 82.5663 269.943 83.142C270.261 83.714 270.419 84.3731 270.415 85.1193C270.419 85.9034 270.237 86.6004 269.869 87.2102C269.506 87.8163 268.996 88.2936 268.341 88.642C267.689 88.9867 266.932 89.1591 266.068 89.1591ZM274.347 86.4886L274.352 83.5852H274.705L277.5 80.2727H280.278L276.523 84.6591H275.949L274.347 86.4886ZM272.153 89V77.3636H274.574V89H272.153ZM277.608 89L275.04 85.1989L276.653 83.4886L280.443 89H277.608Z" fill="black"/>
<path fill-rule="evenodd" clip-rule="evenodd" d="M27.0007 102C27.133 102 27.2634 102.036 27.3749 102.104C27.4873 102.171 27.578 102.268 27.6366 102.384L29.4149 105.885L33.3929 106.447C33.5242 106.466 33.6471 106.519 33.7482 106.602C33.8493 106.685 33.9239 106.793 33.9655 106.915C34.0061 107.038 34.0109 107.168 33.9797 107.293C33.9476 107.418 33.8805 107.531 33.786 107.621L30.9078 110.347L31.5872 114.195C31.6099 114.322 31.5957 114.452 31.5456 114.57C31.4955 114.69 31.4124 114.793 31.3056 114.869C31.1989 114.944 31.0722 114.989 30.94 114.998C30.8086 115.007 30.6763 114.981 30.5592 114.921L27.0007 113.104L23.4422 114.921C23.325 114.981 23.1937 115.007 23.0614 114.998C22.93 114.989 22.8034 114.944 22.6967 114.869C22.5899 114.794 22.5067 114.691 22.4567 114.571C22.4066 114.453 22.3924 114.323 22.4141 114.196L23.0945 110.346L20.2144 107.621C20.1199 107.531 20.0528 107.418 20.0207 107.293C19.9886 107.168 19.9942 107.037 20.0349 106.915C20.0755 106.793 20.1511 106.684 20.2522 106.601C20.3533 106.518 20.4771 106.465 20.6075 106.446L24.5855 105.885L26.3648 102.384C26.4233 102.268 26.5141 102.171 26.6265 102.104C26.7389 102.036 26.8684 102 27.0007 102ZM27.0007 104.244L25.692 106.819C25.641 106.919 25.5663 107.005 25.4737 107.071C25.3811 107.136 25.2725 107.179 25.1591 107.195L22.2327 107.608L24.3493 109.613C24.4315 109.691 24.4939 109.787 24.5288 109.893C24.5647 109.999 24.5732 110.112 24.5534 110.222L24.0545 113.053L26.6709 111.717C26.7729 111.665 26.8863 111.638 27.0007 111.638C27.1159 111.638 27.2293 111.665 27.3304 111.717L29.9478 113.053L29.447 110.222C29.4281 110.112 29.4366 109.999 29.4716 109.893C29.5075 109.787 29.5689 109.691 29.6511 109.613L31.7677 107.609L28.8423 107.196C28.7289 107.18 28.6212 107.137 28.5286 107.072C28.435 107.006 28.3604 106.92 28.3094 106.82L27.0007 104.244Z" fill="#FBD656"/>
<path d="M43.7727 104.614V103.364H52.5V104.614H48.8409V115H47.4318V104.614H43.7727ZM56.7727 115.182C55.9848 115.182 55.2936 114.994 54.6989 114.619C54.108 114.244 53.6458 113.72 53.3125 113.045C52.983 112.371 52.8182 111.583 52.8182 110.682C52.8182 109.773 52.983 108.979 53.3125 108.301C53.6458 107.623 54.108 107.097 54.6989 106.722C55.2936 106.347 55.9848 106.159 56.7727 106.159C57.5606 106.159 58.25 106.347 58.8409 106.722C59.4356 107.097 59.8977 107.623 60.2273 108.301C60.5606 108.979 60.7273 109.773 60.7273 110.682C60.7273 111.583 60.5606 112.371 60.2273 113.045C59.8977 113.72 59.4356 114.244 58.8409 114.619C58.25 114.994 57.5606 115.182 56.7727 115.182ZM56.7727 113.977C57.3712 113.977 57.8636 113.824 58.25 113.517C58.6364 113.21 58.9223 112.807 59.108 112.307C59.2936 111.807 59.3864 111.265 59.3864 110.682C59.3864 110.098 59.2936 109.555 59.108 109.051C58.9223 108.547 58.6364 108.14 58.25 107.83C57.8636 107.519 57.3712 107.364 56.7727 107.364C56.1742 107.364 55.6818 107.519 55.2955 107.83C54.9091 108.14 54.6231 108.547 54.4375 109.051C54.2519 109.555 54.1591 110.098 54.1591 110.682C54.1591 111.265 54.2519 111.807 54.4375 112.307C54.6231 112.807 54.9091 113.21 55.2955 113.517C55.6818 113.824 56.1742 113.977 56.7727 113.977ZM66.5696 106.273V107.409H62.0469V106.273H66.5696ZM63.3651 104.182H64.706V112.5C64.706 112.879 64.7609 113.163 64.8707 113.352C64.9844 113.538 65.1283 113.663 65.3026 113.727C65.4806 113.788 65.6681 113.818 65.8651 113.818C66.0128 113.818 66.134 113.811 66.2287 113.795C66.3234 113.777 66.3991 113.761 66.456 113.75L66.7287 114.955C66.6378 114.989 66.5109 115.023 66.348 115.057C66.1851 115.095 65.9787 115.114 65.7287 115.114C65.3499 115.114 64.9787 115.032 64.6151 114.869C64.2552 114.706 63.956 114.458 63.7173 114.125C63.4825 113.792 63.3651 113.371 63.3651 112.864V104.182ZM71.1548 115.205C70.6018 115.205 70.0999 115.1 69.6491 114.892C69.1984 114.68 68.8404 114.375 68.5753 113.977C68.3101 113.576 68.1776 113.091 68.1776 112.523C68.1776 112.023 68.276 111.617 68.473 111.307C68.67 110.992 68.9332 110.746 69.2628 110.568C69.5923 110.39 69.956 110.258 70.3537 110.17C70.7552 110.08 71.1586 110.008 71.5639 109.955C72.0942 109.886 72.5241 109.835 72.8537 109.801C73.187 109.763 73.4295 109.701 73.581 109.614C73.7363 109.527 73.8139 109.375 73.8139 109.159V109.114C73.8139 108.553 73.6605 108.117 73.3537 107.807C73.0507 107.496 72.5904 107.341 71.973 107.341C71.3329 107.341 70.831 107.481 70.4673 107.761C70.1037 108.042 69.848 108.341 69.7003 108.659L68.4276 108.205C68.6548 107.674 68.9579 107.261 69.3366 106.966C69.7192 106.667 70.1359 106.458 70.5866 106.341C71.0412 106.22 71.4882 106.159 71.9276 106.159C72.2079 106.159 72.5298 106.193 72.8935 106.261C73.2609 106.326 73.6151 106.46 73.956 106.665C74.3007 106.869 74.5866 107.178 74.8139 107.591C75.0412 108.004 75.1548 108.557 75.1548 109.25V115H73.8139V113.818H73.7457C73.6548 114.008 73.5033 114.21 73.2912 114.426C73.0791 114.642 72.7969 114.826 72.4446 114.977C72.0923 115.129 71.6624 115.205 71.1548 115.205ZM71.3594 114C71.8897 114 72.3366 113.896 72.7003 113.688C73.0677 113.479 73.3442 113.21 73.5298 112.881C73.7192 112.551 73.8139 112.205 73.8139 111.841V110.614C73.7571 110.682 73.6321 110.744 73.4389 110.801C73.2495 110.854 73.0298 110.902 72.7798 110.943C72.5336 110.981 72.2931 111.015 72.0582 111.045C71.8272 111.072 71.6397 111.095 71.4957 111.114C71.1473 111.159 70.8215 111.233 70.5185 111.335C70.2192 111.434 69.9768 111.583 69.7912 111.784C69.6094 111.981 69.5185 112.25 69.5185 112.591C69.5185 113.057 69.6908 113.409 70.0355 113.648C70.384 113.883 70.8253 114 71.3594 114ZM78.9432 103.364V115H77.6023V103.364H78.9432ZM86.081 115V103.364H90.0128C90.9257 103.364 91.6719 103.528 92.2514 103.858C92.8348 104.184 93.2666 104.625 93.5469 105.182C93.8272 105.739 93.9673 106.36 93.9673 107.045C93.9673 107.731 93.8272 108.354 93.5469 108.915C93.2704 109.475 92.8423 109.922 92.2628 110.256C91.6832 110.585 90.9408 110.75 90.0355 110.75H87.2173V109.5H89.9901C90.6151 109.5 91.117 109.392 91.4957 109.176C91.8745 108.96 92.1491 108.669 92.3196 108.301C92.4938 107.93 92.581 107.511 92.581 107.045C92.581 106.58 92.4938 106.163 92.3196 105.795C92.1491 105.428 91.8726 105.14 91.4901 104.932C91.1075 104.72 90.5999 104.614 89.9673 104.614H87.4901V115H86.081ZM96.2372 115V103.364H100.169C101.078 103.364 101.824 103.519 102.408 103.83C102.991 104.136 103.423 104.559 103.703 105.097C103.983 105.634 104.124 106.246 104.124 106.932C104.124 107.617 103.983 108.225 103.703 108.756C103.423 109.286 102.993 109.703 102.413 110.006C101.834 110.305 101.093 110.455 100.192 110.455H97.0099V109.182H100.146C100.768 109.182 101.268 109.091 101.646 108.909C102.029 108.727 102.305 108.47 102.476 108.136C102.65 107.799 102.737 107.398 102.737 106.932C102.737 106.466 102.65 106.059 102.476 105.71C102.302 105.362 102.023 105.093 101.641 104.903C101.258 104.71 100.752 104.614 100.124 104.614H97.6463V115H96.2372ZM101.714 109.773L104.578 115H102.942L100.124 109.773H101.714ZM112.472 108.227L111.267 108.568C111.191 108.367 111.08 108.172 110.932 107.983C110.788 107.79 110.591 107.631 110.341 107.506C110.091 107.381 109.771 107.318 109.381 107.318C108.847 107.318 108.402 107.441 108.045 107.688C107.693 107.93 107.517 108.239 107.517 108.614C107.517 108.947 107.638 109.21 107.881 109.403C108.123 109.597 108.502 109.758 109.017 109.886L110.312 110.205C111.093 110.394 111.674 110.684 112.057 111.074C112.439 111.46 112.631 111.958 112.631 112.568C112.631 113.068 112.487 113.515 112.199 113.909C111.915 114.303 111.517 114.614 111.006 114.841C110.494 115.068 109.9 115.182 109.222 115.182C108.331 115.182 107.595 114.989 107.011 114.602C106.428 114.216 106.059 113.652 105.903 112.909L107.176 112.591C107.297 113.061 107.527 113.413 107.864 113.648C108.205 113.883 108.65 114 109.199 114C109.824 114 110.32 113.867 110.688 113.602C111.059 113.333 111.244 113.011 111.244 112.636C111.244 112.333 111.138 112.08 110.926 111.875C110.714 111.667 110.388 111.511 109.949 111.409L108.494 111.068C107.695 110.879 107.108 110.585 106.733 110.188C106.362 109.786 106.176 109.284 106.176 108.682C106.176 108.189 106.314 107.754 106.591 107.375C106.871 106.996 107.252 106.699 107.733 106.483C108.218 106.267 108.767 106.159 109.381 106.159C110.244 106.159 110.922 106.348 111.415 106.727C111.911 107.106 112.263 107.606 112.472 108.227ZM115.626 115.091C115.346 115.091 115.106 114.991 114.905 114.79C114.704 114.589 114.604 114.348 114.604 114.068C114.604 113.788 114.704 113.547 114.905 113.347C115.106 113.146 115.346 113.045 115.626 113.045C115.907 113.045 116.147 113.146 116.348 113.347C116.549 113.547 116.649 113.788 116.649 114.068C116.649 114.254 116.602 114.424 116.507 114.58C116.416 114.735 116.293 114.86 116.138 114.955C115.986 115.045 115.816 115.091 115.626 115.091ZM115.626 108.614C115.346 108.614 115.106 108.513 114.905 108.312C114.704 108.112 114.604 107.871 114.604 107.591C114.604 107.311 114.704 107.07 114.905 106.869C115.106 106.669 115.346 106.568 115.626 106.568C115.907 106.568 116.147 106.669 116.348 106.869C116.549 107.07 116.649 107.311 116.649 107.591C116.649 107.777 116.602 107.947 116.507 108.102C116.416 108.258 116.293 108.383 116.138 108.477C115.986 108.568 115.816 108.614 115.626 108.614Z" fill="black"/>
<path d="M258.767 112.955V111.017L263.625 103.364H265.295V106.045H264.307L261.244 110.892V110.983H268.148V112.955H258.767ZM264.352 115V112.364L264.398 111.506V103.364H266.705V115H264.352ZM274.349 115.256C273.372 115.252 272.531 115.011 271.827 114.534C271.126 114.057 270.586 113.366 270.207 112.46C269.832 111.555 269.647 110.466 269.651 109.193C269.651 107.924 269.838 106.843 270.213 105.949C270.592 105.055 271.132 104.375 271.832 103.909C272.537 103.439 273.376 103.205 274.349 103.205C275.323 103.205 276.16 103.439 276.861 103.909C277.565 104.379 278.107 105.061 278.486 105.955C278.865 106.845 279.052 107.924 279.048 109.193C279.048 110.47 278.859 111.561 278.48 112.466C278.105 113.371 277.567 114.062 276.866 114.54C276.166 115.017 275.327 115.256 274.349 115.256ZM274.349 113.216C275.016 113.216 275.548 112.881 275.946 112.21C276.344 111.54 276.541 110.534 276.537 109.193C276.537 108.311 276.446 107.576 276.264 106.989C276.086 106.402 275.832 105.96 275.503 105.665C275.177 105.369 274.793 105.222 274.349 105.222C273.687 105.222 273.156 105.553 272.759 106.216C272.361 106.879 272.16 107.871 272.156 109.193C272.156 110.087 272.245 110.833 272.423 111.432C272.605 112.027 272.861 112.473 273.19 112.773C273.52 113.068 273.906 113.216 274.349 113.216Z" fill="black"/>
<path fill-rule="evenodd" clip-rule="evenodd" d="M27.0007 128C27.133 128 27.2634 128.036 27.3749 128.104C27.4873 128.171 27.578 128.268 27.6366 128.384L29.4149 131.885L33.3929 132.447C33.5242 132.466 33.6471 132.519 33.7482 132.602C33.8493 132.685 33.9239 132.793 33.9655 132.915C34.0061 133.038 34.0109 133.168 33.9797 133.293C33.9476 133.418 33.8805 133.531 33.786 133.621L30.9078 136.347L31.5872 140.195C31.6099 140.322 31.5957 140.452 31.5456 140.57C31.4955 140.69 31.4124 140.793 31.3056 140.869C31.1989 140.944 31.0722 140.989 30.94 140.998C30.8086 141.007 30.6763 140.981 30.5592 140.921L27.0007 139.104L23.4422 140.921C23.325 140.981 23.1937 141.007 23.0614 140.998C22.93 140.989 22.8034 140.944 22.6967 140.869C22.5899 140.794 22.5067 140.691 22.4567 140.571C22.4066 140.453 22.3924 140.323 22.4141 140.196L23.0945 136.346L20.2144 133.621C20.1199 133.531 20.0528 133.418 20.0207 133.293C19.9886 133.168 19.9942 133.037 20.0349 132.915C20.0755 132.793 20.1511 132.684 20.2522 132.601C20.3533 132.518 20.4771 132.465 20.6075 132.446L24.5855 131.885L26.3648 128.384C26.4233 128.268 26.5141 128.171 26.6265 128.104C26.7389 128.036 26.8684 128 27.0007 128ZM27.0007 130.244L25.692 132.819C25.641 132.919 25.5663 133.005 25.4737 133.071C25.3811 133.136 25.2725 133.179 25.1591 133.195L22.2327 133.608L24.3493 135.613C24.4315 135.691 24.4939 135.787 24.5288 135.893C24.5647 135.999 24.5732 136.112 24.5534 136.222L24.0545 139.053L26.6709 137.717C26.7729 137.665 26.8863 137.638 27.0007 137.638C27.1159 137.638 27.2293 137.665 27.3304 137.717L29.9478 139.053L29.447 136.222C29.4281 136.112 29.4366 135.999 29.4716 135.893C29.5075 135.787 29.5689 135.691 29.6511 135.613L31.7677 133.609L28.8423 133.196C28.7289 133.18 28.6212 133.137 28.5286 133.072C28.435 133.006 28.3604 132.92 28.3094 132.82L27.0007 130.244Z" fill="#FBD656"/>
<path d="M53.7727 133H52.3636C52.2803 132.595 52.1345 132.239 51.9261 131.932C51.7216 131.625 51.4716 131.367 51.1761 131.159C50.8845 130.947 50.5606 130.788 50.2045 130.682C49.8485 130.576 49.4773 130.523 49.0909 130.523C48.3864 130.523 47.7481 130.701 47.1761 131.057C46.608 131.413 46.1553 131.938 45.8182 132.631C45.4848 133.324 45.3182 134.174 45.3182 135.182C45.3182 136.189 45.4848 137.04 45.8182 137.733C46.1553 138.426 46.608 138.951 47.1761 139.307C47.7481 139.663 48.3864 139.841 49.0909 139.841C49.4773 139.841 49.8485 139.788 50.2045 139.682C50.5606 139.576 50.8845 139.419 51.1761 139.21C51.4716 138.998 51.7216 138.739 51.9261 138.432C52.1345 138.121 52.2803 137.765 52.3636 137.364H53.7727C53.6667 137.958 53.4735 138.491 53.1932 138.96C52.9129 139.43 52.5644 139.83 52.1477 140.159C51.7311 140.485 51.2633 140.733 50.7443 140.903C50.2292 141.074 49.678 141.159 49.0909 141.159C48.0985 141.159 47.2159 140.917 46.4432 140.432C45.6705 139.947 45.0625 139.258 44.6193 138.364C44.1761 137.47 43.9545 136.409 43.9545 135.182C43.9545 133.955 44.1761 132.894 44.6193 132C45.0625 131.106 45.6705 130.417 46.4432 129.932C47.2159 129.447 48.0985 129.205 49.0909 129.205C49.678 129.205 50.2292 129.29 50.7443 129.46C51.2633 129.631 51.7311 129.881 52.1477 130.21C52.5644 130.536 52.9129 130.934 53.1932 131.403C53.4735 131.869 53.6667 132.402 53.7727 133ZM59.4134 141.182C58.6255 141.182 57.9342 140.994 57.3395 140.619C56.7486 140.244 56.2865 139.72 55.9531 139.045C55.6236 138.371 55.4588 137.583 55.4588 136.682C55.4588 135.773 55.6236 134.979 55.9531 134.301C56.2865 133.623 56.7486 133.097 57.3395 132.722C57.9342 132.347 58.6255 132.159 59.4134 132.159C60.2012 132.159 60.8906 132.347 61.4815 132.722C62.0762 133.097 62.5384 133.623 62.8679 134.301C63.2012 134.979 63.3679 135.773 63.3679 136.682C63.3679 137.583 63.2012 138.371 62.8679 139.045C62.5384 139.72 62.0762 140.244 61.4815 140.619C60.8906 140.994 60.2012 141.182 59.4134 141.182ZM59.4134 139.977C60.0118 139.977 60.5043 139.824 60.8906 139.517C61.277 139.21 61.563 138.807 61.7486 138.307C61.9342 137.807 62.027 137.265 62.027 136.682C62.027 136.098 61.9342 135.555 61.7486 135.051C61.563 134.547 61.277 134.14 60.8906 133.83C60.5043 133.519 60.0118 133.364 59.4134 133.364C58.8149 133.364 58.3224 133.519 57.9361 133.83C57.5497 134.14 57.2637 134.547 57.0781 135.051C56.8925 135.555 56.7997 136.098 56.7997 136.682C56.7997 137.265 56.8925 137.807 57.0781 138.307C57.2637 138.807 57.5497 139.21 57.9361 139.517C58.3224 139.824 58.8149 139.977 59.4134 139.977ZM66.7557 135.75V141H65.4148V132.273H66.7102V133.636H66.8239C67.0284 133.193 67.339 132.837 67.7557 132.568C68.1723 132.295 68.7102 132.159 69.3693 132.159C69.9602 132.159 70.4773 132.28 70.9205 132.523C71.3636 132.761 71.7083 133.125 71.9545 133.614C72.2008 134.098 72.3239 134.712 72.3239 135.455V141H70.983V135.545C70.983 134.86 70.8049 134.326 70.4489 133.943C70.0928 133.557 69.6042 133.364 68.983 133.364C68.5549 133.364 68.1723 133.456 67.8352 133.642C67.5019 133.828 67.2386 134.098 67.0455 134.455C66.8523 134.811 66.7557 135.242 66.7557 135.75ZM78.5696 132.273V133.409H74.0469V132.273H78.5696ZM75.3651 130.182H76.706V138.5C76.706 138.879 76.7609 139.163 76.8707 139.352C76.9844 139.538 77.1283 139.663 77.3026 139.727C77.4806 139.788 77.6681 139.818 77.8651 139.818C78.0128 139.818 78.134 139.811 78.2287 139.795C78.3234 139.777 78.3991 139.761 78.456 139.75L78.7287 140.955C78.6378 140.989 78.5109 141.023 78.348 141.057C78.1851 141.095 77.9787 141.114 77.7287 141.114C77.3499 141.114 76.9787 141.032 76.6151 140.869C76.2552 140.706 75.956 140.458 75.7173 140.125C75.4825 139.792 75.3651 139.371 75.3651 138.864V130.182ZM80.5866 141V132.273H81.8821V133.591H81.973C82.1321 133.159 82.42 132.809 82.8366 132.54C83.2533 132.271 83.723 132.136 84.2457 132.136C84.3442 132.136 84.4673 132.138 84.6151 132.142C84.7628 132.146 84.8745 132.152 84.9503 132.159V133.523C84.9048 133.511 84.8007 133.494 84.6378 133.472C84.4787 133.445 84.3101 133.432 84.1321 133.432C83.7079 133.432 83.3291 133.521 82.9957 133.699C82.6662 133.873 82.4048 134.116 82.2116 134.426C82.0223 134.733 81.9276 135.083 81.9276 135.477V141H80.5866ZM86.5398 141V132.273H87.8807V141H86.5398ZM87.2216 130.818C86.9602 130.818 86.7348 130.729 86.5455 130.551C86.3598 130.373 86.267 130.159 86.267 129.909C86.267 129.659 86.3598 129.445 86.5455 129.267C86.7348 129.089 86.9602 129 87.2216 129C87.483 129 87.7064 129.089 87.892 129.267C88.0814 129.445 88.1761 129.659 88.1761 129.909C88.1761 130.159 88.0814 130.373 87.892 130.551C87.7064 130.729 87.483 130.818 87.2216 130.818ZM90.5185 141V129.364H91.8594V133.659H91.973C92.0715 133.508 92.2079 133.314 92.3821 133.08C92.5601 132.841 92.8139 132.629 93.1435 132.443C93.4768 132.254 93.9276 132.159 94.4957 132.159C95.2306 132.159 95.8783 132.343 96.4389 132.71C96.9995 133.078 97.437 133.598 97.7514 134.273C98.0658 134.947 98.223 135.742 98.223 136.659C98.223 137.583 98.0658 138.384 97.7514 139.062C97.437 139.737 97.0014 140.259 96.4446 140.631C95.8878 140.998 95.2457 141.182 94.5185 141.182C93.9579 141.182 93.509 141.089 93.1719 140.903C92.8348 140.714 92.5753 140.5 92.3935 140.261C92.2116 140.019 92.0715 139.818 91.973 139.659H91.8139V141H90.5185ZM91.8366 136.636C91.8366 137.295 91.9332 137.877 92.1264 138.381C92.3196 138.881 92.6018 139.273 92.973 139.557C93.3442 139.837 93.7988 139.977 94.3366 139.977C94.8973 139.977 95.3651 139.83 95.7401 139.534C96.1188 139.235 96.4029 138.833 96.5923 138.33C96.7855 137.822 96.8821 137.258 96.8821 136.636C96.8821 136.023 96.7874 135.47 96.598 134.977C96.4124 134.481 96.1302 134.089 95.7514 133.801C95.3764 133.509 94.9048 133.364 94.3366 133.364C93.7912 133.364 93.3329 133.502 92.9616 133.778C92.5904 134.051 92.3101 134.434 92.1207 134.926C91.9313 135.415 91.8366 135.985 91.8366 136.636ZM105.774 137.432V132.273H107.115V141H105.774V139.523H105.683C105.479 139.966 105.161 140.343 104.729 140.653C104.297 140.96 103.751 141.114 103.092 141.114C102.547 141.114 102.062 140.994 101.638 140.756C101.214 140.513 100.88 140.15 100.638 139.665C100.395 139.176 100.274 138.561 100.274 137.818V132.273H101.615V137.727C101.615 138.364 101.793 138.871 102.149 139.25C102.509 139.629 102.967 139.818 103.524 139.818C103.857 139.818 104.196 139.733 104.541 139.562C104.89 139.392 105.181 139.131 105.416 138.778C105.655 138.426 105.774 137.977 105.774 137.432ZM113.366 132.273V133.409H108.844V132.273H113.366ZM110.162 130.182H111.503V138.5C111.503 138.879 111.558 139.163 111.668 139.352C111.781 139.538 111.925 139.663 112.099 139.727C112.277 139.788 112.465 139.818 112.662 139.818C112.81 139.818 112.931 139.811 113.026 139.795C113.12 139.777 113.196 139.761 113.253 139.75L113.526 140.955C113.435 140.989 113.308 141.023 113.145 141.057C112.982 141.095 112.776 141.114 112.526 141.114C112.147 141.114 111.776 141.032 111.412 140.869C111.052 140.706 110.753 140.458 110.514 140.125C110.279 139.792 110.162 139.371 110.162 138.864V130.182ZM118.949 141.182C118.108 141.182 117.383 140.996 116.773 140.625C116.167 140.25 115.699 139.727 115.369 139.057C115.044 138.383 114.881 137.598 114.881 136.705C114.881 135.811 115.044 135.023 115.369 134.341C115.699 133.655 116.157 133.121 116.744 132.739C117.335 132.352 118.025 132.159 118.812 132.159C119.267 132.159 119.716 132.235 120.159 132.386C120.602 132.538 121.006 132.784 121.369 133.125C121.733 133.462 122.023 133.909 122.239 134.466C122.455 135.023 122.562 135.708 122.562 136.523V137.091H115.835V135.932H121.199C121.199 135.439 121.1 135 120.903 134.614C120.71 134.227 120.434 133.922 120.074 133.699C119.718 133.475 119.297 133.364 118.812 133.364C118.278 133.364 117.816 133.496 117.426 133.761C117.04 134.023 116.742 134.364 116.534 134.784C116.326 135.205 116.222 135.655 116.222 136.136V136.909C116.222 137.568 116.335 138.127 116.562 138.585C116.794 139.04 117.114 139.386 117.523 139.625C117.932 139.86 118.407 139.977 118.949 139.977C119.301 139.977 119.619 139.928 119.903 139.83C120.191 139.727 120.439 139.576 120.648 139.375C120.856 139.17 121.017 138.917 121.131 138.614L122.426 138.977C122.29 139.417 122.061 139.803 121.739 140.136C121.417 140.466 121.019 140.723 120.545 140.909C120.072 141.091 119.54 141.182 118.949 141.182ZM127.898 141.182C127.17 141.182 126.528 140.998 125.972 140.631C125.415 140.259 124.979 139.737 124.665 139.062C124.35 138.384 124.193 137.583 124.193 136.659C124.193 135.742 124.35 134.947 124.665 134.273C124.979 133.598 125.417 133.078 125.977 132.71C126.538 132.343 127.186 132.159 127.92 132.159C128.489 132.159 128.938 132.254 129.267 132.443C129.6 132.629 129.854 132.841 130.028 133.08C130.206 133.314 130.345 133.508 130.443 133.659H130.557V129.364H131.898V141H130.602V139.659H130.443C130.345 139.818 130.205 140.019 130.023 140.261C129.841 140.5 129.581 140.714 129.244 140.903C128.907 141.089 128.458 141.182 127.898 141.182ZM128.08 139.977C128.617 139.977 129.072 139.837 129.443 139.557C129.814 139.273 130.097 138.881 130.29 138.381C130.483 137.877 130.58 137.295 130.58 136.636C130.58 135.985 130.485 135.415 130.295 134.926C130.106 134.434 129.826 134.051 129.455 133.778C129.083 133.502 128.625 133.364 128.08 133.364C127.511 133.364 127.038 133.509 126.659 133.801C126.284 134.089 126.002 134.481 125.812 134.977C125.627 135.47 125.534 136.023 125.534 136.636C125.534 137.258 125.629 137.822 125.818 138.33C126.011 138.833 126.295 139.235 126.67 139.534C127.049 139.83 127.519 139.977 128.08 139.977ZM138.585 130.614V129.364H147.312V130.614H143.653V141H142.244V130.614H138.585ZM151.585 141.182C150.797 141.182 150.106 140.994 149.511 140.619C148.92 140.244 148.458 139.72 148.125 139.045C147.795 138.371 147.631 137.583 147.631 136.682C147.631 135.773 147.795 134.979 148.125 134.301C148.458 133.623 148.92 133.097 149.511 132.722C150.106 132.347 150.797 132.159 151.585 132.159C152.373 132.159 153.063 132.347 153.653 132.722C154.248 133.097 154.71 133.623 155.04 134.301C155.373 134.979 155.54 135.773 155.54 136.682C155.54 137.583 155.373 138.371 155.04 139.045C154.71 139.72 154.248 140.244 153.653 140.619C153.063 140.994 152.373 141.182 151.585 141.182ZM151.585 139.977C152.184 139.977 152.676 139.824 153.062 139.517C153.449 139.21 153.735 138.807 153.92 138.307C154.106 137.807 154.199 137.265 154.199 136.682C154.199 136.098 154.106 135.555 153.92 135.051C153.735 134.547 153.449 134.14 153.062 133.83C152.676 133.519 152.184 133.364 151.585 133.364C150.987 133.364 150.494 133.519 150.108 133.83C149.722 134.14 149.436 134.547 149.25 135.051C149.064 135.555 148.972 136.098 148.972 136.682C148.972 137.265 149.064 137.807 149.25 138.307C149.436 138.807 149.722 139.21 150.108 139.517C150.494 139.824 150.987 139.977 151.585 139.977ZM158.564 141.091C158.284 141.091 158.043 140.991 157.842 140.79C157.642 140.589 157.541 140.348 157.541 140.068C157.541 139.788 157.642 139.547 157.842 139.347C158.043 139.146 158.284 139.045 158.564 139.045C158.844 139.045 159.085 139.146 159.286 139.347C159.486 139.547 159.587 139.788 159.587 140.068C159.587 140.254 159.539 140.424 159.445 140.58C159.354 140.735 159.231 140.86 159.075 140.955C158.924 141.045 158.753 141.091 158.564 141.091ZM158.564 134.614C158.284 134.614 158.043 134.513 157.842 134.312C157.642 134.112 157.541 133.871 157.541 133.591C157.541 133.311 157.642 133.07 157.842 132.869C158.043 132.669 158.284 132.568 158.564 132.568C158.844 132.568 159.085 132.669 159.286 132.869C159.486 133.07 159.587 133.311 159.587 133.591C159.587 133.777 159.539 133.947 159.445 134.102C159.354 134.258 159.231 134.383 159.075 134.477C158.924 134.568 158.753 134.614 158.564 134.614Z" fill="black"/>
<path d="M267.006 129.364V141H264.545V131.699H264.477L261.812 133.369V131.188L264.693 129.364H267.006ZM269.771 141V139.227L273.913 135.392C274.266 135.051 274.561 134.744 274.8 134.472C275.042 134.199 275.226 133.932 275.351 133.67C275.476 133.405 275.538 133.119 275.538 132.812C275.538 132.472 275.461 132.178 275.305 131.932C275.15 131.682 274.938 131.491 274.669 131.358C274.4 131.222 274.095 131.153 273.754 131.153C273.398 131.153 273.088 131.225 272.822 131.369C272.557 131.513 272.353 131.72 272.209 131.989C272.065 132.258 271.993 132.578 271.993 132.949H269.658C269.658 132.187 269.83 131.527 270.175 130.966C270.519 130.405 271.002 129.972 271.624 129.665C272.245 129.358 272.961 129.205 273.771 129.205C274.605 129.205 275.33 129.352 275.947 129.648C276.569 129.939 277.052 130.345 277.396 130.864C277.741 131.383 277.913 131.977 277.913 132.648C277.913 133.087 277.826 133.521 277.652 133.949C277.482 134.377 277.177 134.852 276.737 135.375C276.298 135.894 275.679 136.517 274.879 137.244L273.18 138.909V138.989H278.067V141H269.771Z" fill="black"/>
<path fill-rule="evenodd" clip-rule="evenodd" d="M27.0007 50C27.133 49.9999 27.2634 50.0358 27.3749 50.1036C27.4873 50.1715 27.578 50.2685 27.6366 50.3837L29.4149 53.8854L33.3929 54.4472C33.5242 54.4656 33.6471 54.5193 33.7482 54.602C33.8493 54.6848 33.9239 54.7934 33.9655 54.9155C34.0061 55.0377 34.0109 55.1685 33.9797 55.2932C33.9476 55.4178 33.8805 55.5315 33.786 55.6212L30.9078 58.3473L31.5872 62.1951C31.6099 62.3217 31.5957 62.4521 31.5456 62.5705C31.4955 62.6898 31.4124 62.7926 31.3056 62.8688C31.1989 62.9441 31.0722 62.9891 30.94 62.9982C30.8086 63.0074 30.6763 62.9808 30.5592 62.9211L27.0007 61.1037L23.4422 62.9211C23.325 62.9808 23.1937 63.0074 23.0614 62.9982C22.93 62.9891 22.8034 62.9441 22.6967 62.8688C22.5899 62.7935 22.5067 62.6907 22.4567 62.5714C22.4066 62.453 22.3924 62.3227 22.4141 62.196L23.0945 58.3464L20.2144 55.6212C20.1199 55.5315 20.0528 55.4178 20.0207 55.293C19.9886 55.1682 19.9942 55.0372 20.0349 54.9148C20.0755 54.7926 20.1511 54.6838 20.2522 54.601C20.3533 54.5182 20.4771 54.4646 20.6075 54.4463L24.5855 53.8854L26.3648 50.3837C26.4233 50.2685 26.5141 50.1715 26.6265 50.1036C26.7389 50.0358 26.8684 49.9999 27.0007 50ZM27.0007 52.2442L25.692 54.8189C25.641 54.9189 25.5663 55.0053 25.4737 55.0709C25.3811 55.1364 25.2725 55.1791 25.1591 55.1953L22.2327 55.6083L24.3493 57.613C24.4315 57.6909 24.4939 57.7871 24.5288 57.8932C24.5647 57.9994 24.5732 58.1124 24.5534 58.2224L24.0545 61.0532L26.6709 59.7168C26.7729 59.6648 26.8863 59.6377 27.0007 59.6377C27.1159 59.6377 27.2293 59.6648 27.3304 59.7168L29.9478 61.0532L29.447 58.2224C29.4281 58.1124 29.4366 57.9994 29.4716 57.8932C29.5075 57.7871 29.5689 57.6909 29.6511 57.613L31.7677 55.6092L28.8423 55.1962C28.7289 55.18 28.6212 55.1373 28.5286 55.0718C28.435 55.0063 28.3604 54.9198 28.3094 54.8198L27.0007 52.2442Z" fill="#FBD656"/>
<path d="M43.7727 52.6136V51.3636H52.5V52.6136H48.8409V63H47.4318V52.6136H43.7727ZM56.7727 63.1818C55.9848 63.1818 55.2936 62.9943 54.6989 62.6193C54.108 62.2443 53.6458 61.7197 53.3125 61.0455C52.983 60.3712 52.8182 59.5833 52.8182 58.6818C52.8182 57.7727 52.983 56.9792 53.3125 56.3011C53.6458 55.6231 54.108 55.0966 54.6989 54.7216C55.2936 54.3466 55.9848 54.1591 56.7727 54.1591C57.5606 54.1591 58.25 54.3466 58.8409 54.7216C59.4356 55.0966 59.8977 55.6231 60.2273 56.3011C60.5606 56.9792 60.7273 57.7727 60.7273 58.6818C60.7273 59.5833 60.5606 60.3712 60.2273 61.0455C59.8977 61.7197 59.4356 62.2443 58.8409 62.6193C58.25 62.9943 57.5606 63.1818 56.7727 63.1818ZM56.7727 61.9773C57.3712 61.9773 57.8636 61.8239 58.25 61.517C58.6364 61.2102 58.9223 60.8068 59.108 60.3068C59.2936 59.8068 59.3864 59.2652 59.3864 58.6818C59.3864 58.0985 59.2936 57.5549 59.108 57.0511C58.9223 56.5473 58.6364 56.1402 58.25 55.8295C57.8636 55.5189 57.3712 55.3636 56.7727 55.3636C56.1742 55.3636 55.6818 55.5189 55.2955 55.8295C54.9091 56.1402 54.6231 56.5473 54.4375 57.0511C54.2519 57.5549 54.1591 58.0985 54.1591 58.6818C54.1591 59.2652 54.2519 59.8068 54.4375 60.3068C54.6231 60.8068 54.9091 61.2102 55.2955 61.517C55.6818 61.8239 56.1742 61.9773 56.7727 61.9773ZM66.5696 54.2727V55.4091H62.0469V54.2727H66.5696ZM63.3651 52.1818H64.706V60.5C64.706 60.8788 64.7609 61.1629 64.8707 61.3523C64.9844 61.5379 65.1283 61.6629 65.3026 61.7273C65.4806 61.7879 65.6681 61.8182 65.8651 61.8182C66.0128 61.8182 66.134 61.8106 66.2287 61.7955C66.3234 61.7765 66.3991 61.7614 66.456 61.75L66.7287 62.9545C66.6378 62.9886 66.5109 63.0227 66.348 63.0568C66.1851 63.0947 65.9787 63.1136 65.7287 63.1136C65.3499 63.1136 64.9787 63.0322 64.6151 62.8693C64.2552 62.7064 63.956 62.4583 63.7173 62.125C63.4825 61.7917 63.3651 61.3712 63.3651 60.8636V52.1818ZM71.1548 63.2045C70.6018 63.2045 70.0999 63.1004 69.6491 62.892C69.1984 62.6799 68.8404 62.375 68.5753 61.9773C68.3101 61.5758 68.1776 61.0909 68.1776 60.5227C68.1776 60.0227 68.276 59.6174 68.473 59.3068C68.67 58.9924 68.9332 58.7462 69.2628 58.5682C69.5923 58.3902 69.956 58.2576 70.3537 58.1705C70.7552 58.0795 71.1586 58.0076 71.5639 57.9545C72.0942 57.8864 72.5241 57.8352 72.8537 57.8011C73.187 57.7633 73.4295 57.7008 73.581 57.6136C73.7363 57.5265 73.8139 57.375 73.8139 57.1591V57.1136C73.8139 56.553 73.6605 56.1174 73.3537 55.8068C73.0507 55.4962 72.5904 55.3409 71.973 55.3409C71.3329 55.3409 70.831 55.4811 70.4673 55.7614C70.1037 56.0417 69.848 56.3409 69.7003 56.6591L68.4276 56.2045C68.6548 55.6742 68.9579 55.2614 69.3366 54.9659C69.7192 54.6667 70.1359 54.4583 70.5866 54.3409C71.0412 54.2197 71.4882 54.1591 71.9276 54.1591C72.2079 54.1591 72.5298 54.1932 72.8935 54.2614C73.2609 54.3258 73.6151 54.4602 73.956 54.6648C74.3007 54.8693 74.5866 55.178 74.8139 55.5909C75.0412 56.0038 75.1548 56.5568 75.1548 57.25V63H73.8139V61.8182H73.7457C73.6548 62.0076 73.5033 62.2102 73.2912 62.4261C73.0791 62.642 72.7969 62.8258 72.4446 62.9773C72.0923 63.1288 71.6624 63.2045 71.1548 63.2045ZM71.3594 62C71.8897 62 72.3366 61.8958 72.7003 61.6875C73.0677 61.4792 73.3442 61.2102 73.5298 60.8807C73.7192 60.5511 73.8139 60.2045 73.8139 59.8409V58.6136C73.7571 58.6818 73.6321 58.7443 73.4389 58.8011C73.2495 58.8542 73.0298 58.9015 72.7798 58.9432C72.5336 58.9811 72.2931 59.0152 72.0582 59.0455C71.8272 59.072 71.6397 59.0947 71.4957 59.1136C71.1473 59.1591 70.8215 59.233 70.5185 59.3352C70.2192 59.4337 69.9768 59.5833 69.7912 59.7841C69.6094 59.9811 69.5185 60.25 69.5185 60.5909C69.5185 61.0568 69.6908 61.4091 70.0355 61.6477C70.384 61.8826 70.8253 62 71.3594 62ZM78.9432 51.3636V63H77.6023V51.3636H78.9432ZM92.4446 54.2727C92.3764 53.697 92.0999 53.25 91.6151 52.9318C91.1302 52.6136 90.5355 52.4545 89.831 52.4545C89.3158 52.4545 88.8651 52.5379 88.4787 52.7045C88.0961 52.8712 87.7969 53.1004 87.581 53.392C87.3688 53.6837 87.2628 54.0152 87.2628 54.3864C87.2628 54.697 87.3366 54.964 87.4844 55.1875C87.6359 55.4072 87.8291 55.5909 88.0639 55.7386C88.2988 55.8826 88.545 56.0019 88.8026 56.0966C89.0601 56.1875 89.2969 56.2614 89.5128 56.3182L90.6946 56.6364C90.9976 56.7159 91.3348 56.8258 91.706 56.9659C92.081 57.1061 92.4389 57.2973 92.7798 57.5398C93.1245 57.7784 93.4086 58.0852 93.6321 58.4602C93.8556 58.8352 93.9673 59.2955 93.9673 59.8409C93.9673 60.4697 93.8026 61.0379 93.473 61.5455C93.1473 62.053 92.67 62.4564 92.0412 62.7557C91.4162 63.0549 90.6567 63.2045 89.7628 63.2045C88.9295 63.2045 88.2079 63.0701 87.598 62.8011C86.992 62.5322 86.5147 62.1572 86.1662 61.6761C85.8215 61.1951 85.6264 60.6364 85.581 60H87.0355C87.0734 60.4394 87.2211 60.803 87.4787 61.0909C87.7401 61.375 88.0696 61.5871 88.4673 61.7273C88.8688 61.8636 89.3007 61.9318 89.7628 61.9318C90.3007 61.9318 90.7836 61.8447 91.2116 61.6705C91.6397 61.4924 91.9787 61.2462 92.2287 60.9318C92.4787 60.6136 92.6037 60.2424 92.6037 59.8182C92.6037 59.4318 92.4957 59.1174 92.2798 58.875C92.0639 58.6326 91.7798 58.4356 91.4276 58.2841C91.0753 58.1326 90.6946 58 90.2855 57.8864L88.8537 57.4773C87.9446 57.2159 87.2249 56.8428 86.6946 56.358C86.1643 55.8731 85.8991 55.2386 85.8991 54.4545C85.8991 53.803 86.0753 53.2348 86.4276 52.75C86.7836 52.2614 87.2609 51.8826 87.8594 51.6136C88.4616 51.3409 89.134 51.2045 89.8764 51.2045C90.6264 51.2045 91.2931 51.339 91.8764 51.608C92.4598 51.8731 92.9219 52.2367 93.2628 52.6989C93.6075 53.161 93.7893 53.6856 93.8082 54.2727H92.4446ZM99.8977 54.2727V55.4091H95.375V54.2727H99.8977ZM96.6932 52.1818H98.0341V60.5C98.0341 60.8788 98.089 61.1629 98.1989 61.3523C98.3125 61.5379 98.4564 61.6629 98.6307 61.7273C98.8087 61.7879 98.9962 61.8182 99.1932 61.8182C99.3409 61.8182 99.4621 61.8106 99.5568 61.7955C99.6515 61.7765 99.7273 61.7614 99.7841 61.75L100.057 62.9545C99.9659 62.9886 99.839 63.0227 99.6761 63.0568C99.5133 63.0947 99.3068 63.1136 99.0568 63.1136C98.678 63.1136 98.3068 63.0322 97.9432 62.8693C97.5833 62.7064 97.2841 62.4583 97.0455 62.125C96.8106 61.7917 96.6932 61.3712 96.6932 60.8636V52.1818ZM104.483 63.2045C103.93 63.2045 103.428 63.1004 102.977 62.892C102.527 62.6799 102.169 62.375 101.903 61.9773C101.638 61.5758 101.506 61.0909 101.506 60.5227C101.506 60.0227 101.604 59.6174 101.801 59.3068C101.998 58.9924 102.261 58.7462 102.591 58.5682C102.92 58.3902 103.284 58.2576 103.682 58.1705C104.083 58.0795 104.487 58.0076 104.892 57.9545C105.422 57.8864 105.852 57.8352 106.182 57.8011C106.515 57.7633 106.758 57.7008 106.909 57.6136C107.064 57.5265 107.142 57.375 107.142 57.1591V57.1136C107.142 56.553 106.989 56.1174 106.682 55.8068C106.379 55.4962 105.919 55.3409 105.301 55.3409C104.661 55.3409 104.159 55.4811 103.795 55.7614C103.432 56.0417 103.176 56.3409 103.028 56.6591L101.756 56.2045C101.983 55.6742 102.286 55.2614 102.665 54.9659C103.047 54.6667 103.464 54.4583 103.915 54.3409C104.369 54.2197 104.816 54.1591 105.256 54.1591C105.536 54.1591 105.858 54.1932 106.222 54.2614C106.589 54.3258 106.943 54.4602 107.284 54.6648C107.629 54.8693 107.915 55.178 108.142 55.5909C108.369 56.0038 108.483 56.5568 108.483 57.25V63H107.142V61.8182H107.074C106.983 62.0076 106.831 62.2102 106.619 62.4261C106.407 62.642 106.125 62.8258 105.773 62.9773C105.42 63.1288 104.991 63.2045 104.483 63.2045ZM104.688 62C105.218 62 105.665 61.8958 106.028 61.6875C106.396 61.4792 106.672 61.2102 106.858 60.8807C107.047 60.5511 107.142 60.2045 107.142 59.8409V58.6136C107.085 58.6818 106.96 58.7443 106.767 58.8011C106.578 58.8542 106.358 58.9015 106.108 58.9432C105.862 58.9811 105.621 59.0152 105.386 59.0455C105.155 59.072 104.968 59.0947 104.824 59.1136C104.475 59.1591 104.15 59.233 103.847 59.3352C103.547 59.4337 103.305 59.5833 103.119 59.7841C102.938 59.9811 102.847 60.25 102.847 60.5909C102.847 61.0568 103.019 61.4091 103.364 61.6477C103.712 61.8826 104.153 62 104.688 62ZM110.93 63V54.2727H112.226V55.5909H112.317C112.476 55.1591 112.764 54.8087 113.18 54.5398C113.597 54.2708 114.067 54.1364 114.589 54.1364C114.688 54.1364 114.811 54.1383 114.959 54.142C115.107 54.1458 115.218 54.1515 115.294 54.1591V55.5227C115.249 55.5114 115.144 55.4943 114.982 55.4716C114.822 55.4451 114.654 55.4318 114.476 55.4318C114.052 55.4318 113.673 55.5208 113.339 55.6989C113.01 55.8731 112.749 56.1155 112.555 56.4261C112.366 56.733 112.271 57.0833 112.271 57.4773V63H110.93ZM123.065 56.2273L121.861 56.5682C121.785 56.3674 121.673 56.1723 121.526 55.983C121.382 55.7898 121.185 55.6307 120.935 55.5057C120.685 55.3807 120.365 55.3182 119.974 55.3182C119.44 55.3182 118.995 55.4413 118.639 55.6875C118.287 55.9299 118.111 56.2386 118.111 56.6136C118.111 56.947 118.232 57.2102 118.474 57.4034C118.717 57.5966 119.096 57.7576 119.611 57.8864L120.906 58.2045C121.687 58.3939 122.268 58.6837 122.651 59.0739C123.033 59.4602 123.224 59.9583 123.224 60.5682C123.224 61.0682 123.08 61.5152 122.793 61.9091C122.509 62.303 122.111 62.6136 121.599 62.8409C121.088 63.0682 120.493 63.1818 119.815 63.1818C118.925 63.1818 118.188 62.9886 117.605 62.6023C117.022 62.2159 116.652 61.6515 116.497 60.9091L117.77 60.5909C117.891 61.0606 118.12 61.4129 118.457 61.6477C118.798 61.8826 119.243 62 119.793 62C120.418 62 120.914 61.8674 121.281 61.6023C121.652 61.3333 121.838 61.0114 121.838 60.6364C121.838 60.3333 121.732 60.0795 121.52 59.875C121.308 59.6667 120.982 59.5114 120.543 59.4091L119.088 59.0682C118.289 58.8788 117.702 58.5852 117.327 58.1875C116.955 57.786 116.77 57.2841 116.77 56.6818C116.77 56.1894 116.908 55.7538 117.185 55.375C117.465 54.9962 117.846 54.6989 118.327 54.483C118.812 54.267 119.361 54.1591 119.974 54.1591C120.838 54.1591 121.516 54.3485 122.009 54.7273C122.505 55.1061 122.857 55.6061 123.065 56.2273ZM129.925 63V51.3636H136.947V52.6136H131.334V56.5455H136.584V57.7955H131.334V61.75H137.038V63H129.925ZM141.874 63.2045C141.321 63.2045 140.819 63.1004 140.368 62.892C139.917 62.6799 139.559 62.375 139.294 61.9773C139.029 61.5758 138.896 61.0909 138.896 60.5227C138.896 60.0227 138.995 59.6174 139.192 59.3068C139.389 58.9924 139.652 58.7462 139.982 58.5682C140.311 58.3902 140.675 58.2576 141.072 58.1705C141.474 58.0795 141.877 58.0076 142.283 57.9545C142.813 57.8864 143.243 57.8352 143.572 57.8011C143.906 57.7633 144.148 57.7008 144.3 57.6136C144.455 57.5265 144.533 57.375 144.533 57.1591V57.1136C144.533 56.553 144.379 56.1174 144.072 55.8068C143.769 55.4962 143.309 55.3409 142.692 55.3409C142.052 55.3409 141.55 55.4811 141.186 55.7614C140.822 56.0417 140.567 56.3409 140.419 56.6591L139.146 56.2045C139.374 55.6742 139.677 55.2614 140.055 54.9659C140.438 54.6667 140.855 54.4583 141.305 54.3409C141.76 54.2197 142.207 54.1591 142.646 54.1591C142.927 54.1591 143.249 54.1932 143.612 54.2614C143.98 54.3258 144.334 54.4602 144.675 54.6648C145.019 54.8693 145.305 55.178 145.533 55.5909C145.76 56.0038 145.874 56.5568 145.874 57.25V63H144.533V61.8182H144.464C144.374 62.0076 144.222 62.2102 144.01 62.4261C143.798 62.642 143.516 62.8258 143.163 62.9773C142.811 63.1288 142.381 63.2045 141.874 63.2045ZM142.078 62C142.608 62 143.055 61.8958 143.419 61.6875C143.786 61.4792 144.063 61.2102 144.249 60.8807C144.438 60.5511 144.533 60.2045 144.533 59.8409V58.6136C144.476 58.6818 144.351 58.7443 144.158 58.8011C143.968 58.8542 143.749 58.9015 143.499 58.9432C143.252 58.9811 143.012 59.0152 142.777 59.0455C142.546 59.072 142.358 59.0947 142.214 59.1136C141.866 59.1591 141.54 59.233 141.237 59.3352C140.938 59.4337 140.696 59.5833 140.51 59.7841C140.328 59.9811 140.237 60.25 140.237 60.5909C140.237 61.0568 140.41 61.4091 140.754 61.6477C141.103 61.8826 141.544 62 142.078 62ZM148.321 63V54.2727H149.616V55.5909H149.707C149.866 55.1591 150.154 54.8087 150.571 54.5398C150.988 54.2708 151.457 54.1364 151.98 54.1364C152.079 54.1364 152.202 54.1383 152.349 54.142C152.497 54.1458 152.609 54.1515 152.685 54.1591V55.5227C152.639 55.5114 152.535 55.4943 152.372 55.4716C152.213 55.4451 152.045 55.4318 151.866 55.4318C151.442 55.4318 151.063 55.5208 150.73 55.6989C150.401 55.8731 150.139 56.1155 149.946 56.4261C149.757 56.733 149.662 57.0833 149.662 57.4773V63H148.321ZM155.615 57.75V63H154.274V54.2727H155.57V55.6364H155.683C155.888 55.1932 156.198 54.8371 156.615 54.5682C157.032 54.2955 157.57 54.1591 158.229 54.1591C158.82 54.1591 159.337 54.2803 159.78 54.5227C160.223 54.7614 160.568 55.125 160.814 55.6136C161.06 56.0985 161.183 56.7121 161.183 57.4545V63H159.842V57.5455C159.842 56.8598 159.664 56.3258 159.308 55.9432C158.952 55.5568 158.464 55.3636 157.842 55.3636C157.414 55.3636 157.032 55.4564 156.695 55.642C156.361 55.8277 156.098 56.0985 155.905 56.4545C155.712 56.8106 155.615 57.2424 155.615 57.75ZM167.293 63.1818C166.452 63.1818 165.726 62.9962 165.116 62.625C164.51 62.25 164.043 61.7273 163.713 61.0568C163.387 60.3826 163.224 59.5985 163.224 58.7045C163.224 57.8106 163.387 57.0227 163.713 56.3409C164.043 55.6553 164.501 55.1212 165.088 54.7386C165.679 54.3523 166.368 54.1591 167.156 54.1591C167.611 54.1591 168.06 54.2348 168.503 54.3864C168.946 54.5379 169.349 54.7841 169.713 55.125C170.077 55.4621 170.366 55.9091 170.582 56.4659C170.798 57.0227 170.906 57.7083 170.906 58.5227V59.0909H164.179V57.9318H169.543C169.543 57.4394 169.444 57 169.247 56.6136C169.054 56.2273 168.777 55.9223 168.418 55.6989C168.062 55.4754 167.641 55.3636 167.156 55.3636C166.622 55.3636 166.16 55.4962 165.77 55.7614C165.384 56.0227 165.086 56.3636 164.878 56.7841C164.67 57.2045 164.565 57.6553 164.565 58.1364V58.9091C164.565 59.5682 164.679 60.1269 164.906 60.5852C165.137 61.0398 165.457 61.3864 165.866 61.625C166.276 61.8598 166.751 61.9773 167.293 61.9773C167.645 61.9773 167.963 61.928 168.247 61.8295C168.535 61.7273 168.783 61.5758 168.991 61.375C169.2 61.1705 169.361 60.9167 169.474 60.6136L170.77 60.9773C170.634 61.4167 170.404 61.803 170.082 62.1364C169.76 62.4659 169.363 62.7235 168.889 62.9091C168.416 63.0909 167.884 63.1818 167.293 63.1818ZM176.241 63.1818C175.514 63.1818 174.872 62.9981 174.315 62.6307C173.759 62.2595 173.323 61.7367 173.009 61.0625C172.694 60.3845 172.537 59.5833 172.537 58.6591C172.537 57.7424 172.694 56.947 173.009 56.2727C173.323 55.5985 173.76 55.0777 174.321 54.7102C174.882 54.3428 175.529 54.1591 176.264 54.1591C176.832 54.1591 177.281 54.2538 177.611 54.4432C177.944 54.6288 178.198 54.8409 178.372 55.0795C178.55 55.3144 178.688 55.5076 178.787 55.6591H178.901V51.3636H180.241V63H178.946V61.6591H178.787C178.688 61.8182 178.548 62.0189 178.366 62.2614C178.185 62.5 177.925 62.714 177.588 62.9034C177.251 63.089 176.802 63.1818 176.241 63.1818ZM176.423 61.9773C176.961 61.9773 177.416 61.8371 177.787 61.5568C178.158 61.2727 178.44 60.8807 178.634 60.3807C178.827 59.8769 178.923 59.2955 178.923 58.6364C178.923 57.9848 178.829 57.4148 178.639 56.9261C178.45 56.4337 178.17 56.0511 177.798 55.7784C177.427 55.5019 176.969 55.3636 176.423 55.3636C175.855 55.3636 175.382 55.5095 175.003 55.8011C174.628 56.089 174.346 56.4811 174.156 56.9773C173.971 57.4697 173.878 58.0227 173.878 58.6364C173.878 59.2576 173.973 59.822 174.162 60.3295C174.355 60.8333 174.639 61.2348 175.014 61.5341C175.393 61.8295 175.863 61.9773 176.423 61.9773ZM183.861 63.0909C183.58 63.0909 183.34 62.9905 183.139 62.7898C182.938 62.589 182.838 62.3485 182.838 62.0682C182.838 61.7879 182.938 61.5473 183.139 61.3466C183.34 61.1458 183.58 61.0455 183.861 61.0455C184.141 61.0455 184.382 61.1458 184.582 61.3466C184.783 61.5473 184.884 61.7879 184.884 62.0682C184.884 62.2538 184.836 62.4242 184.741 62.5795C184.651 62.7348 184.527 62.8598 184.372 62.9545C184.221 63.0455 184.05 63.0909 183.861 63.0909ZM183.861 56.6136C183.58 56.6136 183.34 56.5133 183.139 56.3125C182.938 56.1117 182.838 55.8712 182.838 55.5909C182.838 55.3106 182.938 55.0701 183.139 54.8693C183.34 54.6686 183.58 54.5682 183.861 54.5682C184.141 54.5682 184.382 54.6686 184.582 54.8693C184.783 55.0701 184.884 55.3106 184.884 55.5909C184.884 55.7765 184.836 55.947 184.741 56.1023C184.651 56.2576 184.527 56.3826 184.372 56.4773C184.221 56.5682 184.05 56.6136 183.861 56.6136Z" fill="black"/>
<path d="M254.284 63.1591C253.409 63.1591 252.631 63.017 251.949 62.733C251.271 62.4451 250.739 62.053 250.352 61.5568C249.966 61.0606 249.773 60.4981 249.773 59.8693C249.773 59.3845 249.883 58.9394 250.102 58.5341C250.326 58.125 250.629 57.786 251.011 57.517C251.394 57.2443 251.822 57.0701 252.295 56.9943V56.9148C251.674 56.7898 251.17 56.4886 250.784 56.0114C250.398 55.5303 250.205 54.9716 250.205 54.3352C250.205 53.733 250.381 53.197 250.733 52.7273C251.085 52.2538 251.568 51.8826 252.182 51.6136C252.799 51.3409 253.5 51.2045 254.284 51.2045C255.068 51.2045 255.767 51.3409 256.381 51.6136C256.998 51.8864 257.483 52.2595 257.835 52.733C258.188 53.2027 258.366 53.7367 258.369 54.3352C258.366 54.9754 258.169 55.5341 257.778 56.0114C257.388 56.4886 256.888 56.7898 256.278 56.9148V56.9943C256.744 57.0701 257.167 57.2443 257.545 57.517C257.928 57.786 258.231 58.125 258.455 58.5341C258.682 58.9394 258.797 59.3845 258.801 59.8693C258.797 60.4981 258.602 61.0606 258.216 61.5568C257.83 62.053 257.295 62.4451 256.614 62.733C255.936 63.017 255.159 63.1591 254.284 63.1591ZM254.284 61.3523C254.674 61.3523 255.015 61.2822 255.307 61.142C255.598 60.9981 255.826 60.8011 255.989 60.5511C256.155 60.2973 256.239 60.0057 256.239 59.6761C256.239 59.339 256.153 59.0417 255.983 58.7841C255.813 58.5227 255.581 58.3182 255.29 58.1705C254.998 58.0189 254.663 57.9432 254.284 57.9432C253.909 57.9432 253.574 58.0189 253.278 58.1705C252.983 58.3182 252.75 58.5227 252.58 58.7841C252.413 59.0417 252.33 59.339 252.33 59.6761C252.33 60.0057 252.411 60.2973 252.574 60.5511C252.737 60.8011 252.966 60.9981 253.261 61.142C253.557 61.2822 253.898 61.3523 254.284 61.3523ZM254.284 56.1534C254.61 56.1534 254.9 56.0871 255.153 55.9545C255.407 55.822 255.606 55.6383 255.75 55.4034C255.894 55.1686 255.966 54.8977 255.966 54.5909C255.966 54.2879 255.894 54.0227 255.75 53.7955C255.606 53.5644 255.409 53.3845 255.159 53.2557C254.909 53.1231 254.617 53.0568 254.284 53.0568C253.955 53.0568 253.663 53.1231 253.409 53.2557C253.155 53.3845 252.956 53.5644 252.812 53.7955C252.672 54.0227 252.602 54.2879 252.602 54.5909C252.602 54.8977 252.674 55.1686 252.818 55.4034C252.962 55.6383 253.161 55.822 253.415 55.9545C253.669 56.0871 253.958 56.1534 254.284 56.1534ZM265.084 63.2557C264.107 63.2519 263.266 63.0114 262.561 62.5341C261.86 62.0568 261.321 61.3655 260.942 60.4602C260.567 59.5549 260.381 58.4659 260.385 57.1932C260.385 55.9242 260.572 54.8428 260.947 53.9489C261.326 53.0549 261.866 52.375 262.567 51.9091C263.271 51.4394 264.11 51.2045 265.084 51.2045C266.057 51.2045 266.894 51.4394 267.595 51.9091C268.3 52.3788 268.841 53.0606 269.22 53.9545C269.599 54.8447 269.786 55.9242 269.783 57.1932C269.783 58.4697 269.593 59.5606 269.214 60.4659C268.839 61.3712 268.302 62.0625 267.601 62.5398C266.9 63.017 266.061 63.2557 265.084 63.2557ZM265.084 61.2159C265.75 61.2159 266.283 60.8807 266.68 60.2102C267.078 59.5398 267.275 58.5341 267.271 57.1932C267.271 56.3106 267.18 55.5758 266.999 54.9886C266.821 54.4015 266.567 53.9602 266.237 53.6648C265.911 53.3693 265.527 53.2216 265.084 53.2216C264.421 53.2216 263.891 53.553 263.493 54.2159C263.095 54.8788 262.894 55.8712 262.891 57.1932C262.891 58.0871 262.98 58.8333 263.158 59.4318C263.339 60.0265 263.595 60.4735 263.925 60.7727C264.254 61.0682 264.641 61.2159 265.084 61.2159ZM273.753 60.4886L273.759 57.5852H274.111L276.906 54.2727H279.685L275.929 58.6591H275.355L273.753 60.4886ZM271.56 63V51.3636H273.98V63H271.56ZM277.014 63L274.446 59.1989L276.06 57.4886L279.849 63H277.014Z" fill="black"/>
<path d="M375.777 35.067C375.974 33.6447 374.98 32.3251 373.55 32.1994C362.476 31.2265 351.356 33.8276 341.838 39.658C331.579 45.9422 323.817 55.589 319.873 66.9548C315.93 78.3205 316.049 90.7021 320.211 101.99C324.373 113.277 332.32 122.773 342.698 128.858C353.076 134.943 365.243 137.241 377.126 135.361C389.008 133.481 399.872 127.539 407.864 118.548C415.857 109.556 420.485 98.0716 420.96 86.0505C421.4 74.8973 418.239 63.9226 411.983 54.7341C411.175 53.5472 409.538 53.3247 408.393 54.1912V54.1912C407.248 55.0576 407.029 56.6846 407.83 57.876C413.364 66.1015 416.156 75.8945 415.764 85.8454C415.337 96.6645 411.172 107.001 403.978 115.093C396.784 123.185 387.008 128.533 376.313 130.225C365.619 131.917 354.669 129.848 345.328 124.372C335.988 118.895 328.836 110.35 325.09 100.191C321.344 90.0319 321.237 78.8885 324.786 68.6593C328.335 58.4301 335.321 49.7479 344.554 44.0922C353.046 38.8903 362.955 36.5446 372.836 37.3574C374.267 37.4752 375.58 36.4894 375.777 35.067V35.067Z" fill="#E4E4E4"/>
<path d="M334.069 49.0689C333.054 48.0536 331.402 48.0494 330.438 49.1143C322.981 57.3576 318.344 67.795 317.25 78.9031C316.071 90.8757 319.08 102.887 325.764 112.89C332.447 122.893 342.393 130.269 353.905 133.761C365.418 137.253 377.785 136.646 388.9 132.042C400.014 127.438 409.189 119.123 414.86 108.513C420.531 97.9027 422.348 85.6546 420.001 73.8553C417.654 62.056 411.288 51.4355 401.988 43.8035C393.36 36.7224 382.702 32.6204 371.599 32.065C370.165 31.9932 369 33.1641 369 34.6V34.6C369 36.0359 370.165 37.1925 371.599 37.2722C381.498 37.8225 390.991 41.5054 398.69 47.8231C407.059 54.692 412.788 64.2504 414.901 74.8698C417.013 85.4892 415.378 96.5124 410.274 106.061C405.17 115.61 396.913 123.094 386.91 127.238C376.906 131.381 365.776 131.928 355.415 128.785C345.053 125.642 336.103 119.003 330.087 110.001C324.072 100.998 321.364 90.1881 322.425 79.4128C323.401 69.5021 327.51 60.1847 334.121 52.7962C335.078 51.726 335.084 50.0843 334.069 49.0689V49.0689Z" fill="#62F268"/>
<path d="M340.795 96H334.75L342.602 72.7273H350.091L357.943 96H351.898L346.432 78.5909H346.25L340.795 96ZM339.989 86.8409H352.625V91.1136H339.989V86.8409ZM367.381 92.6364V76.1818H371.96V92.6364H367.381ZM361.438 86.7045V82.1136H377.892V86.7045H361.438ZM389.349 92.6364V76.1818H393.929V92.6364H389.349ZM383.406 86.7045V82.1136H399.861V86.7045H383.406Z" fill="black"/>
<defs>
<radialGradient id="paint0_diamond_1_2" cx="0" cy="0" r="1" gradientUnits="userSpaceOnUse" gradientTransform="translate(227 82) rotate(90) scale(82 227)">
<stop stop-color="#9CC4FF"/>
<stop offset="1" stop-color="white"/>
</radialGradient>
</defs>
</svg>
